<svg width="56" height="56" viewBox="0 0 56 56" fill="none" xmlns="http://www.w3.org/2000/svg">
<g clip-path="url(#clip0)">
<path fill-rule="evenodd" clip-rule="evenodd" d="M49 56C50.8565 56 52.637 55.2625 53.9497 53.9497C55.2625 52.637 56 50.8565 56 49L56 7C56 5.14349 55.2625 3.36301 53.9498 2.05025C52.637 0.737499 50.8565 -4.49658e-07 49 -6.11959e-07L7 -4.28372e-06C5.14349 -4.44602e-06 3.36301 0.737495 2.05026 2.05025C0.737504 3.363 4.44602e-06 5.14348 4.28372e-06 7L6.11959e-07 49C4.49658e-07 50.8565 0.7375 52.637 2.05026 53.9497C3.36301 55.2625 5.14349 56 7 56L49 56ZM26.761 18.739C26.4324 18.4104 26.2478 17.9647 26.2478 17.5C26.2478 17.0353 26.4324 16.5896 26.761 16.261C27.0896 15.9324 27.5353 15.7478 28 15.7478C28.4647 15.7478 28.9104 15.9324 29.239 16.261L39.739 26.761C39.902 26.9236 40.0313 27.1167 40.1195 27.3293C40.2077 27.5419 40.2531 27.7698 40.2531 28C40.2531 28.2302 40.2077 28.4581 40.1195 28.6707C40.0313 28.8833 39.902 29.0764 39.739 29.239L29.239 39.739C29.0763 39.9017 28.8831 40.0308 28.6705 40.1188C28.458 40.2069 28.2301 40.2522 28 40.2522C27.7699 40.2522 27.542 40.2069 27.3295 40.1188C27.1169 40.0308 26.9237 39.9017 26.761 39.739C26.5983 39.5763 26.4692 39.3831 26.3812 39.1705C26.2931 38.958 26.2478 38.7301 26.2478 38.5C26.2478 38.2699 26.2931 38.042 26.3812 37.8295C26.4692 37.6169 26.5983 37.4237 26.761 37.261L34.2755 29.75L17.5 29.75C17.0359 29.75 16.5908 29.5656 16.2626 29.2374C15.9344 28.9092 15.75 28.4641 15.75 28C15.75 27.5359 15.9344 27.0907 16.2626 26.7626C16.5908 26.4344 17.0359 26.25 17.5 26.25L34.2755 26.25L26.761 18.739Z" fill="url(#paint0_linear)"/>
</g>
<defs>
<linearGradient id="paint0_linear" x1="28" y1="56" x2="28" y2="-2.44784e-06" gradientUnits="userSpaceOnUse">
<stop stop-color="#3882C2"/>
<stop offset="1" stop-color="#134694"/>
</linearGradient>
<clipPath id="clip0">
<rect width="56" height="56" fill="white" transform="translate(56 56) rotate(-180)"/>
</clipPath>
</defs>
</svg>
