<svg width="56" height="56" viewBox="0 0 56 56" fill="none" xmlns="http://www.w3.org/2000/svg">
<g clip-path="url(#clip0)">
<path fill-rule="evenodd" clip-rule="evenodd" d="M7 0C5.14348 0 3.36301 0.737498 2.05025 2.05025C0.737498 3.36301 0 5.14348 0 7L0 49C0 50.8565 0.737498 52.637 2.05025 53.9497C3.36301 55.2625 5.14348 56 7 56H49C50.8565 56 52.637 55.2625 53.9497 53.9497C55.2625 52.637 56 50.8565 56 49V7C56 5.14348 55.2625 3.36301 53.9497 2.05025C52.637 0.737498 50.8565 0 49 0L7 0ZM29.239 37.261C29.5676 37.5896 29.7522 38.0353 29.7522 38.5C29.7522 38.9647 29.5676 39.4104 29.239 39.739C28.9104 40.0676 28.4647 40.2522 28 40.2522C27.5353 40.2522 27.0896 40.0676 26.761 39.739L16.261 29.239C16.098 29.0764 15.9687 28.8833 15.8805 28.6707C15.7923 28.4581 15.7469 28.2302 15.7469 28C15.7469 27.7698 15.7923 27.5419 15.8805 27.3293C15.9687 27.1167 16.098 26.9236 16.261 26.761L26.761 16.261C26.9237 16.0983 27.1169 15.9692 27.3295 15.8812C27.542 15.7931 27.7699 15.7478 28 15.7478C28.2301 15.7478 28.458 15.7931 28.6705 15.8812C28.8831 15.9692 29.0763 16.0983 29.239 16.261C29.4017 16.4237 29.5308 16.6169 29.6188 16.8295C29.7069 17.042 29.7522 17.2699 29.7522 17.5C29.7522 17.7301 29.7069 17.958 29.6188 18.1705C29.5308 18.3831 29.4017 18.5763 29.239 18.739L21.7245 26.25H38.5C38.9641 26.25 39.4092 26.4344 39.7374 26.7626C40.0656 27.0908 40.25 27.5359 40.25 28C40.25 28.4641 40.0656 28.9093 39.7374 29.2374C39.4092 29.5656 38.9641 29.75 38.5 29.75H21.7245L29.239 37.261Z" fill="url(#paint0_linear)"/>
</g>
<defs>
<linearGradient id="paint0_linear" x1="28" y1="0" x2="28" y2="56" gradientUnits="userSpaceOnUse">
<stop stop-color="#3882C2"/>
<stop offset="1" stop-color="#134694"/>
</linearGradient>
<clipPath id="clip0">
<rect width="56" height="56" fill="white"/>
</clipPath>
</defs>
</svg>
