<svg width="85" height="66" viewBox="0 0 85 66" fill="none" xmlns="http://www.w3.org/2000/svg">
<path d="M62.155 66C57.0783 66 52.8249 63.8204 49.3947 59.4613C45.9645 54.9659 44.2494 49.517 44.2494 43.1146C44.2494 36.7121 46.5133 29.6285 51.0412 21.8638C55.569 14.0991 61.7433 6.81115 69.5642 0L83.1477 6.74303L84.1768 11.6471C81.4326 14.3715 79.2373 17.5728 77.5908 21.2508C76.0815 24.7926 75.3269 28.1981 75.3269 31.4675C75.3269 34.8731 76.2187 38.2105 78.0024 41.4799C79.7861 44.7492 82.1186 47.4737 85 49.6533V52.5139C81.1582 56.8731 77.2478 60.2105 73.2688 62.5263C69.427 64.8421 65.7224 66 62.155 66ZM17.9056 66C12.8289 66 8.57546 63.8204 5.14528 59.4613C1.71509 54.9659 0 49.517 0 43.1146C0 36.7121 2.26392 29.6285 6.79177 21.8638C11.3196 14.0991 17.4939 6.81115 25.3148 0L38.8983 6.74303L39.9274 11.6471C37.1832 14.3715 34.9879 17.5728 33.3414 21.2508C31.8321 24.7926 31.0775 28.1981 31.0775 31.4675C31.0775 34.8731 31.9693 38.2105 33.753 41.4799C35.5367 44.7492 37.8692 47.4737 40.7506 49.6533V52.5139C36.9088 56.8731 32.9984 60.2105 29.0194 62.5263C25.1776 64.8421 21.473 66 17.9056 66Z" fill="white"/>
</svg>
