<svg width="84" height="84" viewBox="0 0 84 84" fill="none" xmlns="http://www.w3.org/2000/svg">
<circle cx="42" cy="42" r="42" fill="url(#paint0_linear)"/>
<g clip-path="url(#clip0)">
<path fill-rule="evenodd" clip-rule="evenodd" d="M22.005 28.5C22.005 27.1739 22.5318 25.9021 23.4695 24.9645C24.4072 24.0268 25.6789 23.5 27.005 23.5H57.005C58.3311 23.5 59.6029 24.0268 60.5405 24.9645C61.4782 25.9021 62.005 27.1739 62.005 28.5V53.5C62.005 54.8261 61.4782 56.0979 60.5405 57.0355C59.6029 57.9732 58.3311 58.5 57.005 58.5H27.005C25.6789 58.5 24.4072 57.9732 23.4695 57.0355C22.5318 56.0979 22.005 54.8261 22.005 53.5V28.5ZM24.505 51L31.12 45.115C31.3243 44.9114 31.5928 44.7848 31.8799 44.7565C32.1669 44.7283 32.4549 44.8001 32.695 44.96L39.345 49.3925L48.62 40.1175C48.8054 39.9319 49.0444 39.8094 49.3033 39.7672C49.5622 39.725 49.8278 39.7654 50.0625 39.8825L59.505 44.75V53.5C59.505 54.163 59.2416 54.7989 58.7728 55.2678C58.3039 55.7366 57.668 56 57.005 56H27.005C26.342 56 25.7061 55.7366 25.2372 55.2678C24.7684 54.7989 24.505 54.163 24.505 53.5V51ZM37.005 34.75C37.005 35.7446 36.6099 36.6984 35.9067 37.4017C35.2034 38.1049 34.2496 38.5 33.255 38.5C32.2604 38.5 31.3066 38.1049 30.6034 37.4017C29.9001 36.6984 29.505 35.7446 29.505 34.75C29.505 33.7554 29.9001 32.8016 30.6034 32.0983C31.3066 31.3951 32.2604 31 33.255 31C34.2496 31 35.2034 31.3951 35.9067 32.0983C36.6099 32.8016 37.005 33.7554 37.005 34.75Z" fill="white"/>
</g>
<defs>
<linearGradient id="paint0_linear" x1="42" y1="0" x2="42" y2="84" gradientUnits="userSpaceOnUse">
<stop stop-color="#3882C2"/>
<stop offset="1" stop-color="#134694"/>
</linearGradient>
<clipPath id="clip0">
<rect width="40" height="40" fill="white" transform="translate(22 21)"/>
</clipPath>
</defs>
</svg>
