<svg width="100" height="100" viewBox="0 0 100 100" fill="none" xmlns="http://www.w3.org/2000/svg">
<g clip-path="url(#clip0)">
<path fill-rule="evenodd" clip-rule="evenodd" d="M0.0124512 18.75C0.0124512 15.4348 1.32941 12.2554 3.67362 9.91117C6.01782 7.56696 9.19725 6.25 12.5125 6.25H87.5125C90.8277 6.25 94.0071 7.56696 96.3513 9.91117C98.6955 12.2554 100.012 15.4348 100.012 18.75V81.25C100.012 84.5652 98.6955 87.7446 96.3513 90.0888C94.0071 92.433 90.8277 93.75 87.5125 93.75H12.5125C9.19725 93.75 6.01782 92.433 3.67362 90.0888C1.32941 87.7446 0.0124512 84.5652 0.0124512 81.25V18.75ZM6.26245 75L22.8 60.2875C23.3108 59.7785 23.9819 59.4619 24.6996 59.3913C25.4172 59.3206 26.1372 59.5004 26.7375 59.9L43.3625 70.9813L66.55 47.7938C67.0134 47.3298 67.6111 47.0235 68.2583 46.918C68.9055 46.8126 69.5695 46.9134 70.1562 47.2062L93.7625 59.375V81.25C93.7625 82.9076 93.104 84.4973 91.9319 85.6694C90.7598 86.8415 89.1701 87.5 87.5125 87.5H12.5125C10.8548 87.5 9.26514 86.8415 8.09303 85.6694C6.92093 84.4973 6.26245 82.9076 6.26245 81.25V75ZM37.5125 34.375C37.5125 36.8614 36.5247 39.246 34.7666 41.0041C33.0084 42.7623 30.6239 43.75 28.1375 43.75C25.651 43.75 23.2665 42.7623 21.5083 41.0041C19.7502 39.246 18.7625 36.8614 18.7625 34.375C18.7625 31.8886 19.7502 29.504 21.5083 27.7459C23.2665 25.9877 25.651 25 28.1375 25C30.6239 25 33.0084 25.9877 34.7666 27.7459C36.5247 29.504 37.5125 31.8886 37.5125 34.375Z" fill="white"/>
</g>
<defs>
<clipPath id="clip0">
<rect width="100" height="100" fill="white"/>
</clipPath>
</defs>
</svg>
