<svg width="155" height="26" viewBox="0 0 155 26" fill="none" xmlns="http://www.w3.org/2000/svg">
<g opacity="0.5">
<path d="M59.3484 8.27528C59.0694 8.45759 58.716 8.58441 58.2883 8.65575C57.8605 8.72709 57.4048 8.76276 56.9213 8.76276C56.3354 8.76276 55.7868 8.67953 55.2753 8.51307C54.7638 8.33869 54.3175 8.07711 53.9362 7.72835C53.5549 7.37958 53.2527 6.9357 53.0295 6.39669C52.8064 5.84976 52.6948 5.20375 52.6948 4.45866C52.6948 3.68186 52.8157 3.02396 53.0574 2.48496C53.3085 1.93803 53.634 1.49415 54.0339 1.15331C54.443 0.804541 54.8987 0.550892 55.4008 0.392362C55.903 0.233832 56.4145 0.154567 56.9352 0.154567C57.4932 0.154567 57.9488 0.18231 58.3022 0.237795C58.6556 0.285354 58.9578 0.35273 59.2089 0.439921L58.9299 1.30787C58.4835 1.12556 57.8465 1.03441 57.0189 1.03441C56.6376 1.03441 56.261 1.09386 55.8891 1.21276C55.5171 1.33165 55.1823 1.52585 54.8847 1.79535C54.5965 2.06486 54.364 2.41759 54.1873 2.85354C54.0106 3.2895 53.9223 3.82454 53.9223 4.45866C53.9223 5.02937 54.006 5.52874 54.1733 5.95677C54.3407 6.3848 54.5686 6.7415 54.8568 7.02685C55.1544 7.3122 55.4985 7.52622 55.8891 7.6689C56.2889 7.81157 56.7213 7.88291 57.1863 7.88291C57.6048 7.88291 57.9674 7.84724 58.2743 7.77591C58.5905 7.70457 58.8555 7.61341 59.0694 7.50244L59.3484 8.27528Z" fill="white"/>
<path d="M60.8449 3.11512C61.1983 2.93281 61.6075 2.79806 62.0724 2.71087C62.5467 2.62367 63.0395 2.58008 63.551 2.58008C64.0346 2.58008 64.4205 2.63556 64.7088 2.74654C65.0063 2.85751 65.2295 3.00415 65.3783 3.18646C65.5364 3.36084 65.6387 3.55504 65.6852 3.76906C65.741 3.98307 65.7689 4.19709 65.7689 4.4111C65.7689 4.88669 65.7549 5.35039 65.727 5.80221C65.6991 6.25402 65.6852 6.68205 65.6852 7.0863C65.6852 7.37958 65.6991 7.65701 65.727 7.91858C65.7549 8.18016 65.8061 8.42192 65.8805 8.64386H65.0575L64.7645 7.81157H64.6948C64.6111 7.92255 64.5042 8.03352 64.374 8.14449C64.2531 8.24753 64.1043 8.34265 63.9276 8.42984C63.7509 8.50911 63.5464 8.57648 63.3139 8.63197C63.0814 8.68745 62.8164 8.7152 62.5188 8.7152C62.2212 8.7152 61.9422 8.67556 61.6819 8.5963C61.4308 8.51703 61.2122 8.40606 61.0263 8.26339C60.8403 8.11278 60.6915 7.93444 60.5799 7.72835C60.4776 7.52226 60.4265 7.28842 60.4265 7.02685C60.4265 6.67808 60.5102 6.38877 60.6775 6.1589C60.8449 5.9211 61.0774 5.73483 61.375 5.60008C61.6819 5.4574 62.0445 5.35832 62.463 5.30283C62.8908 5.23942 63.3604 5.20772 63.8718 5.20772C64.002 5.20772 64.1276 5.20772 64.2484 5.20772C64.3786 5.20772 64.5088 5.21564 64.639 5.2315C64.6669 4.9937 64.6809 4.77969 64.6809 4.58945C64.6809 4.15349 64.5786 3.84832 64.374 3.67394C64.1694 3.49955 63.7974 3.41236 63.2581 3.41236C63.1 3.41236 62.928 3.42425 62.742 3.44803C62.5653 3.46388 62.3793 3.49163 62.184 3.53126C61.998 3.56297 61.8167 3.60656 61.64 3.66205C61.4726 3.70961 61.3238 3.76509 61.1936 3.8285L60.8449 3.11512ZM62.8257 7.88291C63.086 7.88291 63.3185 7.85517 63.5231 7.79968C63.7277 7.73627 63.9044 7.66097 64.0532 7.57378C64.2019 7.47866 64.3228 7.37562 64.4158 7.26465C64.5181 7.15367 64.5925 7.04667 64.639 6.94362V5.95677C64.5088 5.94885 64.374 5.94488 64.2345 5.94488C64.1043 5.93696 63.9741 5.93299 63.8439 5.93299C63.5556 5.93299 63.272 5.94884 62.993 5.98055C62.7234 6.00433 62.4816 6.05585 62.2677 6.13512C62.0631 6.20646 61.8957 6.3095 61.7655 6.44425C61.6447 6.57108 61.5842 6.73357 61.5842 6.93173C61.5842 7.20916 61.7005 7.43903 61.9329 7.62134C62.1654 7.79572 62.463 7.88291 62.8257 7.88291Z" fill="white"/>
<path d="M72.2285 5.10071L72.2703 4.36354H72.2285L71.6566 5.12449L68.5181 8.62008H67.8765V2.6752H68.9924V6.30158L68.9505 7.00307H69.0063L69.5503 6.2659L72.6888 2.6752H73.3444V8.62008H72.2285V5.10071ZM69.4806 0.273465C69.5736 0.638084 69.7316 0.891732 69.9548 1.03441C70.1873 1.17709 70.4523 1.24843 70.7499 1.24843C71.0475 1.24843 71.3125 1.17312 71.545 1.02252C71.7775 0.871916 71.9356 0.626194 72.0193 0.285354L72.8562 0.51126C72.7725 0.970997 72.5307 1.32373 72.1308 1.56945C71.7403 1.81517 71.2707 1.93803 70.722 1.93803C70.4709 1.93803 70.2199 1.91029 69.9688 1.8548C69.727 1.79932 69.5085 1.71609 69.3132 1.60512C69.1179 1.49415 68.9505 1.35147 68.811 1.17709C68.6715 1.0027 68.5785 0.796614 68.532 0.558819L69.4806 0.273465Z" fill="white"/>
<path d="M79.9408 3.50748H77.7508V8.62008H76.6349V3.50748H74.4449V2.6752H79.9408V3.50748Z" fill="white"/>
<path d="M84.3317 2.6752H85.0989L85.3082 3.38858H85.3639C85.5778 3.11116 85.8522 2.9011 86.1869 2.75843C86.531 2.60782 86.9216 2.53252 87.3586 2.53252C88.2886 2.53252 88.9814 2.76635 89.437 3.23402C89.8927 3.70168 90.1205 4.46659 90.1205 5.52874C90.1205 6.02811 90.0415 6.47992 89.8834 6.88417C89.7346 7.2805 89.5207 7.61738 89.2417 7.8948C88.9628 8.17223 88.6233 8.38625 88.2235 8.53685C87.8329 8.68745 87.3958 8.76276 86.9123 8.76276C86.5682 8.76276 86.2939 8.74294 86.0893 8.70331C85.894 8.6716 85.6801 8.61215 85.4476 8.52496V10.998H84.3317V2.6752ZM87.1494 3.3648C86.6751 3.3648 86.2985 3.47181 86.0195 3.68583C85.7499 3.89192 85.5592 4.20898 85.4476 4.63701V7.58567C85.615 7.69664 85.8057 7.78383 86.0195 7.84724C86.2334 7.90273 86.5171 7.93047 86.8704 7.93047C87.5121 7.93047 88.0189 7.72835 88.3909 7.32409C88.7721 6.91192 88.9628 6.3095 88.9628 5.51685C88.9628 5.19186 88.9302 4.89858 88.8651 4.63701C88.8 4.36751 88.6931 4.1416 88.5443 3.95929C88.4048 3.76906 88.2188 3.62242 87.9863 3.51937C87.7632 3.41633 87.4842 3.3648 87.1494 3.3648Z" fill="white"/>
<path d="M91.7667 3.11512C92.1201 2.93281 92.5292 2.79806 92.9942 2.71087C93.4684 2.62367 93.9613 2.58008 94.4728 2.58008C94.9563 2.58008 95.3422 2.63556 95.6305 2.74654C95.9281 2.85751 96.1513 3.00415 96.3001 3.18646C96.4582 3.36084 96.5604 3.55504 96.6069 3.76906C96.6627 3.98307 96.6906 4.19709 96.6906 4.4111C96.6906 4.88669 96.6767 5.35039 96.6488 5.80221C96.6209 6.25402 96.6069 6.68205 96.6069 7.0863C96.6069 7.37958 96.6209 7.65701 96.6488 7.91858C96.6767 8.18016 96.7278 8.42192 96.8022 8.64386H95.9792L95.6863 7.81157H95.6166C95.5329 7.92255 95.4259 8.03352 95.2957 8.14449C95.1749 8.24753 95.0261 8.34265 94.8494 8.42984C94.6727 8.50911 94.4681 8.57648 94.2356 8.63197C94.0032 8.68745 93.7381 8.7152 93.4406 8.7152C93.143 8.7152 92.864 8.67556 92.6036 8.5963C92.3525 8.51703 92.134 8.40606 91.948 8.26339C91.762 8.11278 91.6133 7.93444 91.5017 7.72835C91.3994 7.52226 91.3482 7.28842 91.3482 7.02685C91.3482 6.67808 91.4319 6.38877 91.5993 6.1589C91.7667 5.9211 91.9992 5.73483 92.2967 5.60008C92.6036 5.4574 92.9663 5.35832 93.3848 5.30283C93.8125 5.23942 94.2821 5.20772 94.7936 5.20772C94.9238 5.20772 95.0493 5.20772 95.1702 5.20772C95.3004 5.20772 95.4306 5.21564 95.5608 5.2315C95.5887 4.9937 95.6026 4.77969 95.6026 4.58945C95.6026 4.15349 95.5003 3.84832 95.2957 3.67394C95.0912 3.49955 94.7192 3.41236 94.1798 3.41236C94.0218 3.41236 93.8497 3.42425 93.6637 3.44803C93.487 3.46388 93.3011 3.49163 93.1058 3.53126C92.9198 3.56297 92.7385 3.60656 92.5618 3.66205C92.3944 3.70961 92.2456 3.76509 92.1154 3.8285L91.7667 3.11512ZM93.7474 7.88291C94.0078 7.88291 94.2403 7.85517 94.4449 7.79968C94.6495 7.73627 94.8261 7.66097 94.9749 7.57378C95.1237 7.47866 95.2446 7.37562 95.3376 7.26465C95.4399 7.15367 95.5143 7.04667 95.5608 6.94362V5.95677C95.4306 5.94885 95.2957 5.94488 95.1563 5.94488C95.0261 5.93696 94.8959 5.93299 94.7657 5.93299C94.4774 5.93299 94.1938 5.94884 93.9148 5.98055C93.6451 6.00433 93.4034 6.05585 93.1895 6.13512C92.9849 6.20646 92.8175 6.3095 92.6873 6.44425C92.5664 6.57108 92.506 6.73357 92.506 6.93173C92.506 7.20916 92.6222 7.43903 92.8547 7.62134C93.0872 7.79572 93.3848 7.88291 93.7474 7.88291Z" fill="white"/>
<path d="M99.4678 5.96866V5.19583H100.444C100.612 5.19583 100.774 5.17205 100.932 5.12449C101.1 5.07693 101.249 5.01352 101.379 4.93425C101.509 4.84706 101.611 4.74798 101.686 4.63701C101.769 4.51811 101.811 4.39525 101.811 4.26842C101.811 3.95929 101.686 3.74131 101.435 3.61449C101.183 3.48766 100.807 3.42425 100.305 3.42425C99.942 3.42425 99.6073 3.47181 99.3004 3.56693C99.0028 3.66205 98.7703 3.7532 98.6029 3.84039L98.2821 3.10323C98.5611 2.96848 98.8866 2.84958 99.2585 2.74654C99.6398 2.64349 100.091 2.59197 100.612 2.59197C102.155 2.59197 102.927 3.07945 102.927 4.05441C102.927 4.33184 102.82 4.6053 102.606 4.8748C102.402 5.13638 102.104 5.32265 101.714 5.43362V5.48118C102.262 5.56837 102.643 5.73483 102.857 5.98055C103.081 6.22627 103.192 6.55126 103.192 6.95551C103.192 7.20916 103.132 7.44299 103.011 7.65701C102.89 7.87102 102.709 8.0573 102.467 8.21583C102.225 8.37436 101.918 8.50118 101.546 8.5963C101.183 8.68349 100.76 8.72709 100.277 8.72709C99.8025 8.72709 99.4073 8.69142 99.0911 8.62008C98.7843 8.54874 98.5053 8.46155 98.2542 8.3585L98.575 7.57378C98.7889 7.67682 99.0446 7.75609 99.3422 7.81157C99.6491 7.86706 99.9792 7.8948 100.333 7.8948C100.9 7.8948 101.332 7.81158 101.63 7.64512C101.927 7.47866 102.076 7.22501 102.076 6.88417C102.076 6.59882 101.937 6.37688 101.658 6.21835C101.379 6.05189 100.918 5.96866 100.277 5.96866H99.4678Z" fill="white"/>
<path d="M104.955 2.6752H105.723L105.932 3.38858H105.988C106.201 3.11116 106.476 2.9011 106.811 2.75843C107.155 2.60782 107.545 2.53252 107.982 2.53252C108.912 2.53252 109.605 2.76635 110.061 3.23402C110.516 3.70168 110.744 4.46659 110.744 5.52874C110.744 6.02811 110.665 6.47992 110.507 6.88417C110.358 7.2805 110.144 7.61738 109.865 7.8948C109.586 8.17223 109.247 8.38625 108.847 8.53685C108.456 8.68745 108.019 8.76276 107.536 8.76276C107.192 8.76276 106.917 8.74294 106.713 8.70331C106.518 8.6716 106.304 8.61215 106.071 8.52496V10.998H104.955V2.6752ZM107.773 3.3648C107.299 3.3648 106.922 3.47181 106.643 3.68583C106.373 3.89192 106.183 4.20898 106.071 4.63701V7.58567C106.239 7.69664 106.429 7.78383 106.643 7.84724C106.857 7.90273 107.141 7.93047 107.494 7.93047C108.136 7.93047 108.642 7.72835 109.014 7.32409C109.396 6.91192 109.586 6.3095 109.586 5.51685C109.586 5.19186 109.554 4.89858 109.489 4.63701C109.424 4.36751 109.317 4.1416 109.168 3.95929C109.028 3.76906 108.842 3.62242 108.61 3.51937C108.387 3.41633 108.108 3.3648 107.773 3.3648Z" fill="white"/>
<path d="M112.39 3.11512C112.744 2.93281 113.153 2.79806 113.618 2.71087C114.092 2.62367 114.585 2.58008 115.096 2.58008C115.58 2.58008 115.966 2.63556 116.254 2.74654C116.552 2.85751 116.775 3.00415 116.924 3.18646C117.082 3.36084 117.184 3.55504 117.231 3.76906C117.286 3.98307 117.314 4.19709 117.314 4.4111C117.314 4.88669 117.3 5.35039 117.272 5.80221C117.244 6.25402 117.231 6.68205 117.231 7.0863C117.231 7.37958 117.244 7.65701 117.272 7.91858C117.3 8.18016 117.351 8.42192 117.426 8.64386H116.603L116.31 7.81157H116.24C116.156 7.92255 116.05 8.03352 115.919 8.14449C115.798 8.24753 115.65 8.34265 115.473 8.42984C115.296 8.50911 115.092 8.57648 114.859 8.63197C114.627 8.68745 114.362 8.7152 114.064 8.7152C113.767 8.7152 113.488 8.67556 113.227 8.5963C112.976 8.51703 112.758 8.40606 112.572 8.26339C112.386 8.11278 112.237 7.93444 112.125 7.72835C112.023 7.52226 111.972 7.28842 111.972 7.02685C111.972 6.67808 112.056 6.38877 112.223 6.1589C112.39 5.9211 112.623 5.73483 112.92 5.60008C113.227 5.4574 113.59 5.35832 114.008 5.30283C114.436 5.23942 114.906 5.20772 115.417 5.20772C115.547 5.20772 115.673 5.20772 115.794 5.20772C115.924 5.20772 116.054 5.21564 116.184 5.2315C116.212 4.9937 116.226 4.77969 116.226 4.58945C116.226 4.15349 116.124 3.84832 115.919 3.67394C115.715 3.49955 115.343 3.41236 114.803 3.41236C114.645 3.41236 114.473 3.42425 114.287 3.44803C114.111 3.46388 113.925 3.49163 113.729 3.53126C113.543 3.56297 113.362 3.60656 113.185 3.66205C113.018 3.70961 112.869 3.76509 112.739 3.8285L112.39 3.11512ZM114.371 7.88291C114.631 7.88291 114.864 7.85517 115.068 7.79968C115.273 7.73627 115.45 7.66097 115.599 7.57378C115.747 7.47866 115.868 7.37562 115.961 7.26465C116.063 7.15367 116.138 7.04667 116.184 6.94362V5.95677C116.054 5.94885 115.919 5.94488 115.78 5.94488C115.65 5.93696 115.519 5.93299 115.389 5.93299C115.101 5.93299 114.817 5.94884 114.538 5.98055C114.269 6.00433 114.027 6.05585 113.813 6.13512C113.608 6.20646 113.441 6.3095 113.311 6.44425C113.19 6.57108 113.13 6.73357 113.13 6.93173C113.13 7.20916 113.246 7.43903 113.478 7.62134C113.711 7.79572 114.008 7.88291 114.371 7.88291Z" fill="white"/>
<path d="M120.063 3.73339C120.37 3.35291 120.71 3.08738 121.082 2.93677C121.454 2.77824 121.919 2.69898 122.477 2.69898C123.332 2.69898 123.988 2.93677 124.443 3.41236C124.908 3.88795 125.141 4.58945 125.141 5.51685C125.141 6.58693 124.871 7.39543 124.332 7.94236C123.802 8.48929 123.058 8.76276 122.1 8.76276C121.077 8.76276 120.31 8.46155 119.798 7.85913C119.287 7.25672 119.031 6.3095 119.031 5.01748C119.031 4.3358 119.068 3.7532 119.143 3.26969C119.227 2.78617 119.343 2.37795 119.492 2.04504C119.65 1.71213 119.836 1.44659 120.05 1.24843C120.273 1.05026 120.519 0.895695 120.789 0.784724C121.068 0.665827 121.37 0.582598 121.695 0.535039C122.021 0.48748 122.37 0.447847 122.742 0.416141C123.225 0.376509 123.602 0.332913 123.871 0.285354C124.15 0.229869 124.374 0.134751 124.541 0L124.667 0.856062C124.574 0.927401 124.471 0.98685 124.36 1.03441C124.248 1.08197 124.113 1.1216 123.955 1.15331C123.797 1.18501 123.606 1.21276 123.383 1.23654C123.169 1.26031 122.918 1.28013 122.63 1.29598C122.23 1.31976 121.877 1.36336 121.57 1.42677C121.272 1.48226 121.012 1.59719 120.789 1.77157C120.575 1.93803 120.403 2.17979 120.273 2.49685C120.152 2.80598 120.068 3.21816 120.022 3.73339H120.063ZM120.189 5.65953C120.189 5.96074 120.226 6.25005 120.301 6.52748C120.375 6.80491 120.487 7.05063 120.635 7.26465C120.793 7.47073 120.993 7.63323 121.235 7.75213C121.477 7.87102 121.761 7.93047 122.086 7.93047C122.728 7.93047 123.202 7.73627 123.509 7.34787C123.825 6.95155 123.983 6.36895 123.983 5.60008C123.983 5.29887 123.951 5.02144 123.885 4.7678C123.82 4.51415 123.718 4.29617 123.579 4.11386C123.439 3.92362 123.262 3.78095 123.049 3.68583C122.835 3.58278 122.579 3.53126 122.281 3.53126C121.556 3.52333 121.026 3.70564 120.691 4.07819C120.356 4.44281 120.189 4.96992 120.189 5.65953Z" fill="white"/>
<path d="M126.51 5.64764C126.51 4.64097 126.77 3.8721 127.291 3.34102C127.821 2.80202 128.579 2.53252 129.564 2.53252C130.085 2.53252 130.536 2.60782 130.918 2.75843C131.308 2.9011 131.629 3.11116 131.88 3.38858C132.131 3.65808 132.317 3.98703 132.438 4.37543C132.559 4.75591 132.619 5.17997 132.619 5.64764C132.619 6.6543 132.354 7.42714 131.824 7.96614C131.303 8.49722 130.55 8.76276 129.564 8.76276C129.044 8.76276 128.588 8.69142 128.197 8.54874C127.816 8.39814 127.5 8.18808 127.249 7.91858C126.998 7.64115 126.812 7.3122 126.691 6.93173C126.57 6.54333 126.51 6.1153 126.51 5.64764ZM127.667 5.64764C127.667 5.94885 127.7 6.23816 127.765 6.51559C127.839 6.79302 127.951 7.03478 128.1 7.24087C128.249 7.44696 128.444 7.61341 128.686 7.74024C128.927 7.86706 129.22 7.93047 129.564 7.93047C130.829 7.9384 131.462 7.17745 131.462 5.64764C131.462 5.3385 131.424 5.04522 131.35 4.7678C131.285 4.49037 131.178 4.24861 131.029 4.04252C130.88 3.83643 130.685 3.67394 130.443 3.55504C130.201 3.42822 129.909 3.3648 129.564 3.3648C128.3 3.35688 127.667 4.11782 127.667 5.64764Z" fill="white"/>
<path d="M138.61 3.50748H136.42V8.62008H135.305V3.50748H133.115V2.6752H138.61V3.50748Z" fill="white"/>
<path d="M139.607 3.11512C139.96 2.93281 140.369 2.79806 140.834 2.71087C141.309 2.62367 141.802 2.58008 142.313 2.58008C142.797 2.58008 143.182 2.63556 143.471 2.74654C143.768 2.85751 143.991 3.00415 144.14 3.18646C144.298 3.36084 144.401 3.55504 144.447 3.76906C144.503 3.98307 144.531 4.19709 144.531 4.4111C144.531 4.88669 144.517 5.35039 144.489 5.80221C144.461 6.25402 144.447 6.68205 144.447 7.0863C144.447 7.37958 144.461 7.65701 144.489 7.91858C144.517 8.18016 144.568 8.42192 144.642 8.64386H143.819L143.527 7.81157H143.457C143.373 7.92255 143.266 8.03352 143.136 8.14449C143.015 8.24753 142.866 8.34265 142.69 8.42984C142.513 8.50911 142.308 8.57648 142.076 8.63197C141.843 8.68745 141.578 8.7152 141.281 8.7152C140.983 8.7152 140.704 8.67556 140.444 8.5963C140.193 8.51703 139.974 8.40606 139.788 8.26339C139.602 8.11278 139.453 7.93444 139.342 7.72835C139.24 7.52226 139.188 7.28842 139.188 7.02685C139.188 6.67808 139.272 6.38877 139.439 6.1589C139.607 5.9211 139.839 5.73483 140.137 5.60008C140.444 5.4574 140.806 5.35832 141.225 5.30283C141.653 5.23942 142.122 5.20772 142.634 5.20772C142.764 5.20772 142.89 5.20772 143.01 5.20772C143.141 5.20772 143.271 5.21564 143.401 5.2315C143.429 4.9937 143.443 4.77969 143.443 4.58945C143.443 4.15349 143.341 3.84832 143.136 3.67394C142.931 3.49955 142.559 3.41236 142.02 3.41236C141.862 3.41236 141.69 3.42425 141.504 3.44803C141.327 3.46388 141.141 3.49163 140.946 3.53126C140.76 3.56297 140.579 3.60656 140.402 3.66205C140.235 3.70961 140.086 3.76509 139.956 3.8285L139.607 3.11512ZM141.588 7.88291C141.848 7.88291 142.08 7.85517 142.285 7.79968C142.49 7.73627 142.666 7.66097 142.815 7.57378C142.964 7.47866 143.085 7.37562 143.178 7.26465C143.28 7.15367 143.354 7.04667 143.401 6.94362V5.95677C143.271 5.94885 143.136 5.94488 142.996 5.94488C142.866 5.93696 142.736 5.93299 142.606 5.93299C142.318 5.93299 142.034 5.94884 141.755 5.98055C141.485 6.00433 141.244 6.05585 141.03 6.13512C140.825 6.20646 140.658 6.3095 140.528 6.44425C140.407 6.57108 140.346 6.73357 140.346 6.93173C140.346 7.20916 140.462 7.43903 140.695 7.62134C140.927 7.79572 141.225 7.88291 141.588 7.88291Z" fill="white"/>
<path d="M150.907 5.99244H147.754V8.62008H146.638V2.6752H147.754V5.16016H150.907V2.6752H152.023V8.62008H150.907V5.99244Z" fill="white"/>
<path d="M52.9877 16.9548C53.3132 16.939 53.6526 16.9191 54.006 16.8954C54.3686 16.8716 54.815 16.8597 55.345 16.8597C56.2657 16.8597 56.9259 16.9825 57.3258 17.2283C57.7256 17.4661 57.9256 17.8307 57.9256 18.3221C57.9256 18.5996 57.8279 18.873 57.6327 19.1425C57.4467 19.4041 57.1351 19.5983 56.6981 19.7251V19.7727C57.2467 19.8599 57.6327 20.0224 57.8558 20.2602C58.079 20.498 58.1906 20.815 58.1906 21.2113C58.1906 21.8296 57.9302 22.2775 57.4095 22.5549C56.8887 22.8323 56.1076 22.971 55.0661 22.971C54.6755 22.971 54.3128 22.9591 53.9781 22.9354C53.6433 22.9195 53.3132 22.8997 52.9877 22.8759V16.9548ZM54.1036 22.0912C54.2803 22.107 54.4523 22.1189 54.6197 22.1269C54.7964 22.1348 55.001 22.1387 55.2335 22.1387C55.8565 22.1387 56.3168 22.0634 56.6144 21.9128C56.9213 21.7622 57.0747 21.5046 57.0747 21.14C57.0747 20.8546 56.9445 20.6248 56.6841 20.4504C56.4331 20.2681 55.982 20.1769 55.3311 20.1769H54.1036V22.0912ZM55.4706 19.4517C55.638 19.4517 55.8007 19.4279 55.9588 19.3803C56.1169 19.3328 56.2564 19.2693 56.3773 19.1901C56.5074 19.1029 56.6097 19.0038 56.6841 18.8928C56.7678 18.7819 56.8097 18.663 56.8097 18.5361C56.8097 18.2191 56.6981 18.0011 56.4749 17.8822C56.2517 17.7554 55.8612 17.692 55.3032 17.692C55.0056 17.692 54.7685 17.6959 54.5918 17.7039C54.4244 17.7118 54.2617 17.7197 54.1036 17.7276V19.4517H55.4706Z" fill="white"/>
<path d="M63.6673 16.9548C63.9928 16.939 64.3322 16.9191 64.6855 16.8954C65.0482 16.8716 65.4946 16.8597 66.0246 16.8597C66.9453 16.8597 67.6055 16.9825 68.0054 17.2283C68.4052 17.4661 68.6052 17.8307 68.6052 18.3221C68.6052 18.5996 68.5075 18.873 68.3122 19.1425C68.1263 19.4041 67.8147 19.5983 67.3777 19.7251V19.7727C67.9263 19.8599 68.3122 20.0224 68.5354 20.2602C68.7586 20.498 68.8702 20.815 68.8702 21.2113C68.8702 21.8296 68.6098 22.2775 68.0891 22.5549C67.5683 22.8323 66.7872 22.971 65.7457 22.971C65.3551 22.971 64.9924 22.9591 64.6576 22.9354C64.3229 22.9195 63.9928 22.8997 63.6673 22.8759V16.9548ZM64.7832 22.0912C64.9599 22.107 65.1319 22.1189 65.2993 22.1269C65.476 22.1348 65.6806 22.1387 65.913 22.1387C66.5361 22.1387 66.9964 22.0634 67.294 21.9128C67.6009 21.7622 67.7543 21.5046 67.7543 21.14C67.7543 20.8546 67.6241 20.6248 67.3637 20.4504C67.1126 20.2681 66.6616 20.1769 66.0107 20.1769H64.7832V22.0912ZM66.1502 19.4517C66.3176 19.4517 66.4803 19.4279 66.6384 19.3803C66.7965 19.3328 66.936 19.2693 67.0568 19.1901C67.187 19.1029 67.2893 19.0038 67.3637 18.8928C67.4474 18.7819 67.4893 18.663 67.4893 18.5361C67.4893 18.2191 67.3777 18.0011 67.1545 17.8822C66.9313 17.7554 66.5407 17.692 65.9828 17.692C65.6852 17.692 65.4481 17.6959 65.2714 17.7039C65.104 17.7118 64.9413 17.7197 64.7832 17.7276V19.4517H66.1502Z" fill="white"/>
<path d="M75.7194 22.4122C75.4404 22.6024 75.0871 22.753 74.6593 22.864C74.2408 22.975 73.7945 23.0305 73.3202 23.0305C72.7901 23.0305 72.3298 22.9591 71.9393 22.8165C71.5487 22.6659 71.2279 22.4558 70.9768 22.1863C70.7257 21.9089 70.5397 21.5799 70.4188 21.1994C70.298 20.819 70.2375 20.3909 70.2375 19.9154C70.2375 18.9008 70.5025 18.1279 71.0326 17.5968C71.5627 17.0658 72.3205 16.8002 73.3063 16.8002C73.6224 16.8002 73.9386 16.8319 74.2548 16.8954C74.571 16.9508 74.8546 17.0618 75.1057 17.2283C75.3567 17.3947 75.5613 17.6325 75.7194 17.9417C75.8775 18.2429 75.9565 18.6432 75.9565 19.1425C75.9565 19.4041 75.9286 19.6934 75.8728 20.0105H71.3953C71.3953 20.3592 71.4371 20.6684 71.5208 20.9379C71.6045 21.2074 71.7347 21.4372 71.9114 21.6275C72.0881 21.8098 72.3159 21.9525 72.5949 22.0555C72.8831 22.1506 73.2319 22.1982 73.641 22.1982C73.9572 22.1982 74.2734 22.1506 74.5896 22.0555C74.9057 21.9604 75.1429 21.8494 75.3009 21.7226L75.7194 22.4122ZM73.3202 17.6325C72.7716 17.6325 72.3298 17.7554 71.9951 18.0011C71.6696 18.2468 71.4743 18.6669 71.4092 19.2614H74.8685C74.8685 18.659 74.7337 18.2389 74.464 18.0011C74.1943 17.7554 73.8131 17.6325 73.3202 17.6325Z" fill="white"/>
<path d="M78.3531 18.0011C78.66 17.6206 78.9994 17.3551 79.3714 17.2045C79.7434 17.046 80.2083 16.9667 80.7663 16.9667C81.6218 16.9667 82.2774 17.2045 82.7331 17.6801C83.198 18.1557 83.4305 18.8572 83.4305 19.7846C83.4305 20.8546 83.1608 21.6632 82.6215 22.2101C82.0914 22.757 81.3475 23.0305 80.3897 23.0305C79.3667 23.0305 78.5996 22.7293 78.0881 22.1269C77.5766 21.5244 77.3209 20.5772 77.3209 19.2852C77.3209 18.6035 77.3581 18.0209 77.4325 17.5374C77.5162 17.0539 77.6324 16.6457 77.7812 16.3128C77.9393 15.9798 78.1253 15.7143 78.3392 15.5161C78.5624 15.318 78.8088 15.1634 79.0785 15.0524C79.3574 14.9335 79.6597 14.8503 79.9851 14.8028C80.3106 14.7552 80.6593 14.7156 81.0313 14.6839C81.5149 14.6442 81.8915 14.6006 82.1612 14.5531C82.4401 14.4976 82.6633 14.4025 82.8307 14.2677L82.9562 15.1238C82.8633 15.1951 82.761 15.2546 82.6494 15.3021C82.5378 15.3497 82.4029 15.3893 82.2449 15.421C82.0868 15.4527 81.8961 15.4805 81.673 15.5043C81.4591 15.528 81.208 15.5478 80.9197 15.5637C80.5198 15.5875 80.1665 15.6311 79.8596 15.6945C79.562 15.75 79.3016 15.8649 79.0785 16.0393C78.8646 16.2057 78.6926 16.4475 78.5624 16.7646C78.4415 17.0737 78.3578 17.4859 78.3113 18.0011H78.3531ZM78.4787 19.9272C78.4787 20.2285 78.5159 20.5178 78.5903 20.7952C78.6647 21.0726 78.7762 21.3183 78.925 21.5324C79.0831 21.7385 79.2831 21.9009 79.5248 22.0198C79.7666 22.1387 80.0502 22.1982 80.3757 22.1982C81.0174 22.1982 81.4916 22.004 81.7985 21.6156C82.1147 21.2193 82.2728 20.6367 82.2728 19.8678C82.2728 19.5666 82.2402 19.2892 82.1751 19.0355C82.11 18.7819 82.0077 18.5639 81.8682 18.3816C81.7287 18.1913 81.5521 18.0487 81.3382 17.9535C81.1243 17.8505 80.8686 17.799 80.571 17.799C79.8457 17.791 79.3156 17.9734 78.9808 18.3459C78.6461 18.7105 78.4787 19.2376 78.4787 19.9272Z" fill="white"/>
<path d="M93.6653 22.4954C93.3863 22.6698 93.0562 22.8006 92.6749 22.8878C92.2936 22.9829 91.8938 23.0305 91.4753 23.0305C90.9359 23.0305 90.4803 22.9591 90.1083 22.8165C89.7363 22.6659 89.4295 22.4558 89.1877 22.1863C88.9552 21.9089 88.7832 21.5799 88.6716 21.1994C88.5693 20.8111 88.5181 20.383 88.5181 19.9154C88.5181 18.9087 88.7785 18.1398 89.2993 17.6087C89.82 17.0697 90.5686 16.8002 91.545 16.8002C91.9914 16.8002 92.368 16.8319 92.6749 16.8954C92.9911 16.9508 93.2747 17.0341 93.5258 17.145L93.2049 17.9654C92.9911 17.8624 92.7539 17.7831 92.4936 17.7276C92.2332 17.6642 91.9542 17.6325 91.6566 17.6325C90.3361 17.6325 89.6759 18.3935 89.6759 19.9154C89.6759 20.2166 89.7084 20.5059 89.7735 20.7833C89.8479 21.0528 89.9642 21.2946 90.1222 21.5086C90.2896 21.7147 90.5035 21.8811 90.7639 22.008C91.0336 22.1348 91.3637 22.1982 91.7543 22.1982C92.089 22.1982 92.3866 22.1546 92.647 22.0674C92.9167 21.9802 93.1352 21.8811 93.3026 21.7702L93.6653 22.4954Z" fill="white"/>
<path d="M99.4338 17.7752H97.2438V22.8878H96.1279V17.7752H93.9379V16.9429H99.4338V17.7752Z" fill="white"/>
<path d="M102.592 20.7952L102.983 21.9366H103.053L103.359 20.7833L104.713 16.9429H105.842L103.778 22.2814C103.62 22.6698 103.462 23.0463 103.304 23.4109C103.155 23.7756 102.988 24.1006 102.802 24.3859C102.616 24.6713 102.406 24.8972 102.174 25.0636C101.941 25.238 101.672 25.3252 101.365 25.3252C101.03 25.3252 100.756 25.2856 100.542 25.2063L100.737 24.3859C100.858 24.4255 100.974 24.4454 101.086 24.4454C101.346 24.4454 101.597 24.3265 101.839 24.0887C102.081 23.8588 102.281 23.4585 102.439 22.8878L99.6351 16.9429H100.918L102.592 20.7952Z" fill="white"/>
<path d="M113.014 24.3978H112.261L112.052 22.8878H106.807L106.598 24.3978H105.844V22.0555H106.667C106.742 21.9683 106.839 21.8138 106.96 21.5918C107.081 21.3619 107.197 21.0449 107.309 20.6406C107.43 20.2285 107.532 19.7212 107.616 19.1187C107.709 18.5084 107.765 17.7831 107.783 16.9429H111.996V22.0555H113.014V24.3978ZM110.88 22.0555V17.7752H108.788C108.769 18.1081 108.737 18.4727 108.69 18.8691C108.644 19.2575 108.578 19.6498 108.495 20.0461C108.42 20.4345 108.323 20.8031 108.202 21.1519C108.081 21.5007 107.941 21.8019 107.783 22.0555H110.88Z" fill="white"/>
<path d="M118.747 19.3684L118.789 18.6313H118.747L118.175 19.3922L115.037 22.8878H114.395V16.9429H115.511V20.5693L115.469 21.2708H115.525L116.069 20.5336L119.208 16.9429H119.863V22.8878H118.747V19.3684Z" fill="white"/>
<path d="M126.362 19.3684L126.404 18.6313H126.362L125.79 19.3922L122.652 22.8878H122.01V16.9429H123.126V20.5693L123.084 21.2708H123.14L123.684 20.5336L126.822 16.9429H127.478V22.8878H126.362V19.3684Z" fill="white"/>
<path d="M135.107 20.1413L135.33 21.5205H135.344L135.581 20.1175L137.59 14.565H138.148L140.171 20.1413L140.408 21.5205H140.422L140.673 20.1175L142.319 14.565H143.449L140.729 23.0186H140.087L138.106 17.4423L137.855 16.182H137.785L137.534 17.4542L135.554 23.0186H134.912L132.122 14.565H133.35L135.107 20.1413Z" fill="white"/>
<path d="M146.659 20.1413L146.882 21.5205H146.896L147.133 20.1175L149.141 14.565H149.699L151.722 20.1413L151.959 21.5205H151.973L152.224 20.1175L153.87 14.565H155L152.28 23.0186H151.638L149.658 17.4423L149.407 16.182H149.337L149.086 17.4542L147.105 23.0186H146.463L143.674 14.565H144.901L146.659 20.1413Z" fill="white"/>
<path fill-rule="evenodd" clip-rule="evenodd" d="M10.7269 5.19482L20.2768 12.9003V0.404297H21.4536V15.3711L10.7269 6.70572L0 15.3711V0.404297H1.17681V12.9003L10.7269 5.19482Z" fill="white"/>
<path fill-rule="evenodd" clip-rule="evenodd" d="M20.3764 22.0168L19.6251 22.8877L10.7269 15.725L1.82854 22.8877L1.07724 22.0168L10.7269 14.1787L20.3764 22.0168Z" fill="white"/>
<path fill-rule="evenodd" clip-rule="evenodd" d="M34.5337 5.19384L44.0837 12.8993V0.40332H45.2604V15.3701L34.5337 6.70474L23.8068 15.3701V0.40332H24.9836V12.8993L34.5337 5.19384Z" fill="white"/>
<path fill-rule="evenodd" clip-rule="evenodd" d="M44.1833 22.0168L43.4319 22.8877L34.5337 15.725L25.6353 22.8877L24.884 22.0168L34.5337 14.1787L44.1833 22.0168Z" fill="white"/>
</g>
</svg>
