<svg width="26" height="26" viewBox="0 0 26 26" fill="none" xmlns="http://www.w3.org/2000/svg">
<path d="M6.48685 10.6133H4.875C4.67259 10.6133 4.47845 10.6939 4.3355 10.8372C4.19255 10.9806 4.11263 11.175 4.11329 11.3774L4.12451 17.1637C4.12451 17.5844 4.46555 17.9254 4.88623 17.9254C5.3069 17.9254 5.64795 17.5844 5.64795 17.1637V15.4068C5.95939 15.4053 6.29211 15.4039 6.48685 15.4039C7.82524 15.4039 8.91414 14.3294 8.91414 13.0086C8.91414 11.6878 7.82524 10.6133 6.48685 10.6133ZM6.48685 13.8804C6.29038 13.8804 5.95644 13.8818 5.64378 13.8834C5.64216 13.5592 5.64073 13.2099 5.64073 13.0086C5.64073 12.8363 5.63987 12.4757 5.63896 12.1367H6.4868C6.97674 12.1367 7.39066 12.536 7.39066 13.0086C7.39066 13.4812 6.97679 13.8804 6.48685 13.8804Z" fill="white"/>
<path d="M12.966 10.6133H11.375C11.1727 10.6133 10.9788 10.6937 10.8359 10.8369C10.693 10.98 10.6129 11.1742 10.6133 11.3764C10.6133 11.3765 10.6246 16.9749 10.6247 16.9952C10.6254 17.1972 10.7064 17.3907 10.8498 17.533C10.9925 17.6747 11.1854 17.7541 11.3864 17.7541H11.3893C11.4374 17.7539 12.5722 17.7496 13.0258 17.7417C14.747 17.7116 15.9962 16.2153 15.9962 14.1837C15.9962 12.0482 14.7785 10.6133 12.966 10.6133ZM12.9992 16.2185C12.802 16.222 12.4625 16.2248 12.1456 16.2268C12.1434 15.5652 12.1393 12.8243 12.1381 12.1367H12.966C14.3641 12.1367 14.4728 13.7035 14.4728 14.1838C14.4728 15.1837 14.0172 16.2007 12.9992 16.2185Z" fill="white"/>
<path d="M21.0165 12.0779C21.4372 12.0779 21.7782 11.7368 21.7782 11.3162C21.7782 10.8955 21.4372 10.5544 21.0165 10.5544H18.6875C18.2668 10.5544 17.9258 10.8955 17.9258 11.3162V17.0625C17.9258 17.4831 18.2668 17.8242 18.6875 17.8242C19.1082 17.8242 19.4492 17.4831 19.4492 17.0625V14.8966H20.8315C21.2522 14.8966 21.5932 14.5556 21.5932 14.1349C21.5932 13.7143 21.2522 13.3732 20.8315 13.3732H19.4492V12.0779H21.0165Z" fill="white"/>
<path d="M23.2578 7.36328H22.6992V7.14599C22.6992 6.16682 22.3282 5.23626 21.6545 4.52563L18.4906 1.18823C17.7747 0.433113 16.7673 0 15.7267 0H5.58594C4.3259 0 3.30078 1.02512 3.30078 2.28516V7.36328H2.74219C1.48215 7.36328 0.457031 8.3884 0.457031 9.64844V18.7891C0.457031 20.0491 1.48215 21.0742 2.74219 21.0742H3.30078V23.7148C3.30078 24.9749 4.3259 26 5.58594 26H20.4141C21.6741 26 22.6992 24.9749 22.6992 23.7148V21.0742H23.2578C24.5178 21.0742 25.543 20.0491 25.543 18.7891V9.64844C25.543 8.3884 24.5178 7.36328 23.2578 7.36328ZM4.82422 2.28516C4.82422 1.86514 5.16593 1.52344 5.58594 1.52344H15.7267C16.3511 1.52344 16.9555 1.78329 17.3851 2.23641L20.549 5.5738C20.9532 6.00016 21.1758 6.5585 21.1758 7.14599V7.36328H4.82422V2.28516ZM21.1758 23.7148C21.1758 24.1349 20.8341 24.4766 20.4141 24.4766H5.58594C5.16593 24.4766 4.82422 24.1349 4.82422 23.7148V21.0742H21.1758V23.7148ZM24.0195 18.7891C24.0195 19.2091 23.6778 19.5508 23.2578 19.5508H2.74219C2.32218 19.5508 1.98047 19.2091 1.98047 18.7891V9.64844C1.98047 9.22843 2.32218 8.88672 2.74219 8.88672H23.2578C23.6778 8.88672 24.0195 9.22843 24.0195 9.64844V18.7891Z" fill="white"/>
</svg>
