<svg width="48" height="46" viewBox="0 0 48 46" fill="none" xmlns="http://www.w3.org/2000/svg">
<path d="M48 19.5586C47.8819 19.2972 47.6457 19.1011 47.4981 18.8396C47.2619 18.4147 47.0552 17.9245 46.819 17.4669C46.4056 16.6171 45.9037 15.6366 45.7856 14.6561C45.697 13.839 45.5199 13.022 45.2542 12.2376C45.0475 11.6493 44.5751 11.2571 44.1617 10.7995C43.6007 10.1785 43.3941 9.36142 42.9807 8.64239C42.6559 8.11945 42.2426 7.59652 41.7702 7.237C41.0616 6.68139 40.2349 6.48528 39.5263 6.02772C39.0243 5.73357 38.4929 5.83162 37.9614 5.79893C37.8729 5.50478 37.8138 5.21063 37.7547 4.8838C37.7252 4.65501 37.5776 4.4916 37.4595 4.32818C37.3119 4.13208 37.1642 4.00135 37.0166 3.83793C37.1642 3.57646 37.3709 3.315 37.3414 2.98816C37.3414 2.00766 37.0757 1.74619 36.3966 1.19058C35.8061 0.700325 35.8356 -0.116759 35.0384 0.0139744C34.7136 0.0793412 34.3593 0.471542 33.9755 0.536909C33.5917 0.602275 33.2964 0.733009 32.9717 0.896426C32.7355 0.863742 32.5878 0.896426 32.5288 1.22326C32.3812 1.97498 31.7316 2.33449 31.7021 3.15158C31.7021 3.47841 31.4659 3.57646 31.4659 3.9033C31.4659 4.0994 31.5545 4.4916 31.643 4.6877C31.7611 4.98185 31.7316 4.72038 32.0859 5.04722C32.145 5.11258 32.204 5.14527 32.2631 5.17795C32.204 5.70088 32.204 6.22382 32.3221 6.71407C31.2592 7.13895 30.2849 7.79262 29.4286 8.64239C28.9858 9.09996 28.9858 9.85167 28.9562 10.4727C28.9562 11.0936 28.8677 11.6819 28.8677 12.3029C28.8677 13.022 28.8677 14.0025 28.5724 14.6234C28.3067 15.1791 27.8343 15.9308 27.8048 16.5191C27.7752 17.4015 27.8343 18.4801 27.6276 19.3299V19.3625C27.1257 20.245 26.5942 21.1274 26.0628 21.9772C25.738 22.5001 25.3542 22.7616 24.7932 22.9904C24.5865 23.0884 24.4094 23.2519 24.3208 23.4806C24.0551 24.0363 23.9074 24.788 23.8484 25.409C23.7303 26.3241 23.6712 27.2066 23.5826 28.1217C21.3978 29.8212 18.8291 31.8149 16.2604 33.8086C12.3631 36.8481 9.23339 39.2994 6.98948 41.0316C4.56841 42.9273 3.5055 43.777 3.00358 44.2019H0.81871C0.81871 44.2019 -0.155622 45.2478 0.0215288 45.64C0.19868 46.0649 3.32835 45.9995 3.6236 45.738C3.88933 45.4766 3.88933 44.5287 4.71604 43.8097C8.11144 41.097 16.7623 34.3642 23.5826 29.0695C23.6417 29.331 23.8484 29.4944 24.2027 29.8539C24.6456 30.2788 24.8522 29.7559 25.177 29.4617C25.9742 28.7427 26.5942 27.8602 27.48 27.2065C27.5095 27.1739 27.539 27.1412 27.5095 27.1085C27.5095 27.0758 27.48 26.9778 27.4504 26.9451C27.2438 26.749 27.2142 26.4875 27.2142 26.226C28.1591 25.507 29.0153 24.8533 29.7534 24.265C29.842 24.3958 29.9601 24.5592 30.0782 24.6572C30.0487 24.6899 30.0487 24.7553 30.0191 24.788C29.7534 25.3436 29.3696 25.8012 29.0743 26.3241C28.6315 27.1412 28.8677 28.4812 28.8381 29.3637C28.8086 30.4095 28.8677 31.39 28.8972 32.4359C28.9267 32.9915 29.0743 33.4491 29.281 33.9066C28.8381 34.0701 28.3067 34.2335 28.2476 34.2662C28.1886 34.2988 28.1591 34.3642 28.1886 34.4296C28.4838 35.1486 28.9267 35.2793 28.9858 36.2272C29.0153 36.9135 28.1295 36.8155 27.7162 37.0116C27.3914 37.175 27.0666 37.4038 26.7123 37.5672C26.1809 37.8613 25.5904 37.9921 25.0884 38.3516C24.7046 38.6457 24.4979 39.4628 24.9113 39.8877C25.7085 40.6394 26.7418 40.8682 27.7457 40.8355C28.8381 40.8028 29.5172 40.0838 30.462 39.5609C31.1116 39.2014 31.9678 38.8745 31.9678 37.9267C31.9678 37.6325 31.9678 37.3711 31.9678 37.1096C31.9973 36.6194 32.1745 36.4559 32.4697 36.0964C32.6764 35.8023 32.9421 35.4101 33.0898 35.0506C33.4736 34.0047 33.0602 34.1354 32.4107 33.9066C32.5878 33.6125 32.765 33.4164 32.9126 33.0569C33.0898 32.5666 33.2079 32.1091 33.2964 31.6188C33.4441 30.8344 33.5031 30.2461 33.385 29.429C33.2964 28.8734 33.2079 28.3505 33.0602 27.8602C33.2079 27.7622 33.326 27.6968 33.4736 27.5988C33.7984 28.0236 34.3003 28.3505 34.6546 28.3505C34.8318 28.3505 35.127 28.0563 35.2156 27.9909C35.4223 27.8602 35.6289 27.7295 35.8356 27.5661C35.8356 27.8275 35.8356 28.1217 35.8947 28.4158C36.1309 29.4617 35.3927 30.1154 35.3632 31.0305C35.3337 31.3573 36.0423 31.913 36.1899 32.1417C36.4261 32.4032 36.6328 32.6974 36.8395 32.9915C36.8395 33.0896 36.8395 33.2203 36.8395 33.3183C36.8395 33.6125 36.7804 33.9066 36.7509 34.1681C36.6033 34.2662 36.4261 34.3315 36.249 34.4949C35.9832 34.7564 35.7175 35.0506 35.5108 35.3447C35.0975 35.9003 34.5365 36.3579 34.1527 36.9135C33.8279 37.3711 33.5917 37.6979 33.7393 38.2862C33.8574 38.7111 34.566 39.136 34.9203 39.234C35.4223 39.3648 35.6289 39.2667 36.0718 39.0379C36.3375 38.9072 36.6033 38.4823 36.8395 38.2862C37.1642 38.0247 37.4595 37.796 37.7547 37.5018C38.3453 36.8808 39.0834 36.4886 39.6739 35.8676C40.2053 35.312 40.2053 34.8218 40.1463 34.0701C40.4415 33.8413 40.7073 33.6125 40.973 33.351C41.4159 32.9261 41.8292 32.2725 42.154 31.7495C43.0398 30.3442 43.955 29.0041 44.7522 27.5334C45.1065 26.8797 45.4018 26.226 45.7561 25.6051C46.1104 24.9841 46.5237 24.3304 46.7599 23.6767C46.9961 23.0231 47.0257 22.5001 47.0257 21.8138C47.0257 21.5196 46.878 21.1601 46.819 20.866C46.7895 20.7352 46.7895 20.6372 46.7895 20.5391C47.2028 20.245 47.6752 19.9508 47.9705 19.526C48 19.624 48 19.5913 48 19.5586ZM27.7162 23.8728C27.8343 23.7094 28.3953 22.7943 28.5429 23.1211C28.661 23.4153 28.9267 23.7094 29.1924 23.8728C28.7791 24.1997 28.1295 24.6899 27.3323 25.3109C27.3914 24.8207 27.48 24.1997 27.7162 23.8728ZM31.7021 19.9508C31.7021 19.9508 31.8497 18.3167 31.9678 17.4996C32.0859 16.6825 32.7355 15.7674 32.7355 15.7674C32.9717 17.8918 34.2412 18.5455 34.2412 18.5455C33.385 18.5128 31.7021 19.9508 31.7021 19.9508Z" fill="url(#paint0_linear)"/>
<defs>
<linearGradient id="paint0_linear" x1="24" y1="0" x2="24" y2="45.9465" gradientUnits="userSpaceOnUse">
<stop stop-color="#3882C2"/>
<stop offset="1" stop-color="#134694"/>
</linearGradient>
</defs>
</svg>
