<svg width="48" height="49" viewBox="0 0 48 49" fill="none" xmlns="http://www.w3.org/2000/svg">
<path d="M47.902 22.8544C47.8511 22.3706 47.7495 21.9722 47.4953 21.5738C47.2666 21.2323 47.2158 20.8339 47.0378 20.4924C46.9362 20.2647 46.8854 20.0371 46.7837 19.8379C46.555 19.3825 46.9108 18.9272 47.2158 18.6711C47.6478 18.3011 46.7329 17.362 46.5041 17.1344C46.0467 16.7075 45.335 17.0205 44.7505 17.2197C44.6997 17.1059 44.6488 16.9636 44.6234 16.8498C44.3693 16.1383 44.1151 15.5407 43.7339 14.8862C43.4035 14.2886 43.0985 13.6625 42.8698 12.9795C42.8698 12.9795 42.819 12.8372 42.7427 12.638C42.9969 12.3819 43.2256 12.0973 43.2002 11.9265C43.1494 11.6704 42.8952 11.6135 42.7681 11.4143C42.5902 11.1582 42.3107 10.9874 42.1073 10.7598C41.6499 10.276 41.2686 9.67835 40.7858 9.22302C40.2266 8.71078 39.5404 8.19853 38.9305 7.77166C38.3713 7.40171 37.6851 7.2025 37.0752 6.97483C36.7448 6.861 36.4652 6.6618 36.1348 6.54796C35.779 6.43413 35.474 6.46259 35.1182 6.43413C34.737 6.40567 34.3812 6.46259 34 6.43413C33.6187 6.40567 33.2121 6.3203 32.8309 6.29184C32.3734 6.26338 31.8143 6.34876 31.306 6.29184C31.3568 6.23493 31.4076 6.17801 31.4585 6.12109C31.5855 6.00726 31.7634 5.9788 31.6618 5.72268C31.611 5.58039 31.5347 5.29581 31.3822 5.26735C31.3568 5.26735 31.3568 5.26735 31.3314 5.26735L31.3568 5.23889C31.4331 5.01123 31.4331 4.5559 31.306 4.35669C31.2551 4.29978 31.2043 4.24286 31.1535 4.2144C31.1281 3.81599 31.1027 3.41758 31.1027 2.96225C31.1027 2.53538 31.1535 2.19388 31.0264 1.76701C30.8739 1.45397 30.6452 1.14093 30.4927 0.856354C30.264 0.429483 29.7302 -0.139678 29.2728 0.0310706C28.8407 0.201819 28.3833 0.144903 27.9258 0.258735C27.3921 -0.0258455 27.0108 -0.0258455 26.528 0.315651C25.9688 0.714064 25.4859 1.16939 25.0285 1.68164C24.8252 1.88084 24.7235 2.19388 24.571 2.45C24.4948 2.5923 24.2406 3.01917 24.266 3.18991C24.2914 3.44604 24.3677 3.6737 24.4439 3.90137C24.1898 4.0152 23.9356 4.15749 23.834 4.35669C23.7577 4.49898 23.8086 4.69819 23.8594 4.84048C23.9611 5.29581 24.1644 5.69422 24.2152 6.17801C24.2406 6.37722 24.2152 7.14558 24.4185 7.2025C24.6218 7.25942 24.8506 7.25942 25.0793 7.25942C25.1047 7.25942 25.1047 7.25942 25.1301 7.25942C25.1301 7.34479 25.1301 7.45862 25.1301 7.544C25.1301 7.60091 25.1301 7.62937 25.1301 7.68629C24.6473 7.77166 24.1644 7.99932 23.7069 8.19853C22.8682 8.56849 22.5124 8.93844 22.0803 9.82064C21.5975 10.7882 21.1146 11.6989 20.4792 12.5526C19.9455 13.2641 19.9455 13.9755 19.9201 14.8577C19.8947 15.3415 19.8692 15.8537 19.8438 16.3375C19.8184 16.8213 19.9201 17.3336 19.9201 17.8174C19.9201 18.0735 19.8438 18.5288 19.9201 18.7849C20.0726 19.2118 20.3775 19.5817 20.6317 19.9517C20.9621 20.4639 20.9367 21.1469 20.9875 21.7446C20.9875 21.8299 21.0383 21.9153 21.0892 21.9722C21.2925 22.2283 21.4958 22.4276 21.5466 22.7975C21.572 23.0252 21.6229 23.1959 21.6991 23.3667C21.445 23.822 21.1908 24.3058 20.9113 24.7611C20.3267 25.8994 19.9455 27.0378 19.3864 28.0907C19.3101 28.2615 19.2084 28.4037 19.1322 28.5745L9.01704 30.7373C8.86455 30.7658 6.34847 31.3065 5.61143 30.8227C4.8744 30.3674 2.155 26.6393 1.51962 26.6393C0.884249 26.6393 -0.157765 27.4931 0.02014 28.1192C0.17263 28.7452 3.50199 32.7294 6.24681 32.1602L18.7256 29.4852C18.5222 29.9974 18.3698 30.5381 18.2681 31.0788C18.2173 31.278 18.3189 31.3918 18.446 31.4772C18.4714 31.5057 18.5222 31.5057 18.5731 31.5341C18.446 31.8187 18.3698 32.0748 18.2681 32.3594C18.0648 32.8717 18.0902 33.64 18.0902 34.1807C18.0648 35.3475 18.5731 36.4858 19.1322 37.5103C19.1068 37.5388 19.0814 37.5672 19.056 37.6242C18.8018 37.9941 18.2427 38.3356 18.1156 38.8194C17.9885 39.3032 18.3952 39.6731 18.6239 40.0715C18.8272 40.413 19.0814 40.6692 19.3355 40.9537C19.2339 41.096 19.1322 41.2099 19.056 41.3522C18.9289 41.5798 18.6493 41.779 18.6747 42.0636C18.751 42.8035 18.9797 43.6573 19.4118 44.2549C19.4626 44.3403 19.5134 44.3687 19.5897 44.4256C19.6151 44.6818 19.6659 44.9379 19.6659 45.194C19.6659 45.2509 19.7676 45.2794 19.7676 45.2225C19.8184 44.9663 19.9201 44.6818 20.0217 44.4256C20.2505 44.3118 20.4792 44.0841 20.6571 43.9418C21.3179 43.3727 21.5466 42.5189 21.8516 41.6937C22.2582 40.6407 22.4107 39.5308 22.8428 38.4779C22.9953 38.1079 23.6307 37.3965 23.1224 36.9981C22.9445 36.8558 22.7411 36.7704 22.792 36.4858C22.8174 36.3151 22.8936 36.2013 22.8936 36.002C22.8936 35.8028 22.7411 35.6036 22.7411 35.376C22.7411 35.0914 22.8174 34.7783 22.8428 34.4938C22.8936 34.1238 22.8936 33.7254 22.919 33.3554C23.0207 33.3554 23.1224 33.3839 23.224 33.3839C23.6307 33.4124 24.0119 33.4693 24.4185 33.5262C24.5964 33.5547 24.8506 33.7254 25.0285 33.6969C25.4097 33.6685 25.5876 33.2416 25.7401 32.9001C25.9942 32.3025 26.4009 31.7903 26.6296 31.1926C27.1633 29.8266 27.8495 28.603 28.7136 27.4931C28.7645 27.4077 28.8407 27.3508 28.917 27.2939L30.1115 27.0378C30.3148 27.0378 30.5181 27.0662 30.7214 27.0662C30.9502 27.0662 31.1789 26.9808 31.4076 26.9524C31.5093 27.18 31.5855 27.4077 31.6364 27.6638C31.6872 27.9769 31.7889 28.2615 31.8651 28.5745C31.9668 28.9729 31.9159 29.3713 31.9668 29.7413C32.0684 30.4243 31.8651 31.0503 31.8651 31.7049C31.8651 32.1033 31.8651 32.4448 31.8905 32.8432C31.8905 32.9001 31.9414 32.9286 31.9922 32.9286C32.2463 32.9001 32.5005 32.644 32.7292 32.5017C32.8309 32.4448 32.9325 32.3594 33.0596 32.3025C33.2121 32.8717 33.39 33.3839 33.7712 33.8677C34.0254 34.1807 34.3049 34.5507 34.5845 34.8353C34.5845 35.006 34.6099 35.1768 34.6099 35.3475C34.6353 36.002 34.8387 36.6566 35.0166 37.2827C35.1691 37.738 35.4232 38.3356 35.6774 38.7625C35.779 38.9332 36.0586 39.1894 36.1094 39.417C36.1857 39.6731 36.1348 39.9577 36.1856 40.2138C36.3381 40.8684 37.4056 40.8684 37.1514 41.779C37.0752 42.0352 36.8973 42.2913 36.8719 42.5759C36.8464 42.9174 36.9227 43.2019 37.0498 43.515C37.2277 44.0557 37.5072 44.5395 37.6343 45.1086C37.736 45.564 38.2443 46.0477 38.5747 46.3039C38.8288 46.5315 39.1084 46.9584 39.4134 47.2145C39.3879 47.2145 39.3879 47.1861 39.3625 47.1861C39.4896 47.243 39.6675 47.4137 39.7692 47.4991C39.9725 47.6698 40.2012 47.8121 40.4045 48.0113C40.5824 48.1821 40.7858 48.4382 40.9891 48.5805C41.0145 48.5805 41.0399 48.5805 41.0399 48.552C41.0907 48.1252 41.0145 47.6414 40.9637 47.2145C40.9383 47.1007 40.9383 46.9869 40.9383 46.873C40.9383 46.873 40.9637 46.873 40.9637 46.8446C41.2432 46.6169 41.5482 46.4746 41.6499 46.0762C41.7515 45.6778 41.7007 45.194 41.472 44.8525C41.1162 44.3403 40.6333 43.9703 40.3029 43.4296C40.0741 43.0596 39.9725 43.2304 40.0487 42.6328C40.0996 42.2344 40.6333 41.779 40.8874 41.4945C41.0399 41.3237 40.862 41.1245 40.7349 41.0391C40.6079 40.9537 40.43 40.9537 40.3029 40.9537C40.2012 40.9537 40.125 40.9822 40.0233 40.9822C39.9217 40.5553 39.7692 40.1569 39.6929 39.7016C39.6167 39.2178 39.6421 38.7056 39.5658 38.2218C39.3879 37.368 39.3879 36.4858 39.2609 35.6321C39.1592 34.9206 39.0575 33.9815 38.7271 33.327C38.4984 32.8717 38.2697 32.4163 38.0409 31.961C38.0918 31.8187 38.1426 31.7049 38.1934 31.5626C38.3968 30.965 38.5747 30.595 38.4984 29.912C38.4476 29.3144 38.3459 28.7452 38.3205 28.1476C38.2951 27.7492 38.3205 27.3508 38.3205 26.9524C38.3205 26.5824 38.2443 26.2409 38.2443 25.871C38.2443 25.6433 38.2697 25.4441 38.2951 25.2164L43.4798 24.1066C43.5052 24.3058 43.5306 24.5904 43.6068 24.7042C43.7339 24.9603 43.861 25.4156 44.0643 25.6433C44.1914 25.7856 44.3947 25.871 44.5472 25.9564C44.7251 26.0417 44.9538 26.2694 45.1571 26.2978C45.335 26.3263 45.5129 26.3263 45.6654 26.1556C45.9196 25.8141 46.25 25.5864 46.5041 25.2734C46.7075 25.0172 47.0124 24.7327 47.2666 24.5619C47.4953 24.3912 47.8003 24.2773 47.9274 23.9643C48.0799 23.6228 47.9528 23.2528 47.902 22.8544ZM38.1426 23.9927C38.0409 23.7082 37.8376 23.452 37.736 23.139C37.5581 22.6552 37.6851 22.1714 37.6851 21.6876C37.6851 21.2892 37.2785 20.7485 37.0243 20.464C36.8973 20.3217 36.7448 20.2078 36.5923 20.1225C36.6177 19.8948 36.5923 19.6387 36.516 19.4395C36.4398 19.1833 36.5923 18.6142 36.389 18.4434C36.084 18.1873 36.2365 17.7604 36.389 17.5043C36.5415 17.2197 36.6431 16.9636 36.5415 16.679L36.3381 16.6221C36.4144 16.6221 36.4652 16.5937 36.516 16.5937C36.4906 16.5652 36.4906 16.5367 36.4652 16.5083C36.1857 16.1383 36.5923 15.9107 36.6685 15.5976C36.7194 15.37 36.7194 15.2277 36.6685 15C36.5669 14.6585 36.389 14.5731 36.6177 14.1747C36.7194 14.0324 36.6685 13.8332 36.6177 13.6625C36.6685 13.7194 36.7448 13.7479 36.7956 13.8048C37.1514 14.1463 37.4818 14.5731 37.8376 14.9431C38.168 15.2846 38.4984 15.6545 38.8288 16.053C39.0575 16.3091 39.21 16.6506 39.4642 16.8782C39.515 16.9352 39.5913 16.9067 39.5913 16.8213C39.6167 16.5083 39.7692 16.2237 39.9471 15.9676C40.0487 16.0814 40.1504 16.1952 40.252 16.3091C40.6587 16.7929 41.1162 17.2482 41.4974 17.732C41.8532 18.2158 42.2344 18.6711 42.5648 19.1833C42.6665 19.3541 42.7935 19.5818 42.8952 19.781C42.5648 20.3501 42.2598 20.8624 42.6411 21.6023C42.8698 22.0007 43.2256 22.3706 43.3018 22.826C43.3273 23.0252 43.3273 23.2244 43.3527 23.4236L38.3713 24.505C38.2697 24.3058 38.2189 24.135 38.1426 23.9927Z" fill="url(#paint0_linear)"/>
<defs>
<linearGradient id="paint0_linear" x1="24" y1="0" x2="24" y2="48.5805" gradientUnits="userSpaceOnUse">
<stop stop-color="#3882C2"/>
<stop offset="1" stop-color="#134694"/>
</linearGradient>
</defs>
</svg>
