<svg width="48" height="58" viewBox="0 0 48 58" fill="none" xmlns="http://www.w3.org/2000/svg">
<path d="M46.5711 36.6183C45.4223 35.4523 44.3585 34.1464 43.3586 32.8172C43.3586 32.724 43.3373 32.654 43.2948 32.5607C43.2948 32.5607 43.2948 32.5607 43.3161 32.5607C43.082 32.1177 42.7204 31.9078 42.4225 31.558C42.0608 31.0683 41.3375 31.7212 41.6353 32.2343C41.8055 32.5141 42.0183 32.7939 42.2736 33.0271C42.1672 33.0738 42.1034 33.167 42.0608 33.3069C42.0396 33.3536 41.8694 33.5168 41.8268 33.5868C41.7204 33.7267 41.6353 33.8899 41.529 34.0298C41.4013 33.7967 41.2524 33.6101 41.0396 33.5168C40.2525 33.1204 39.6993 33.82 39.2526 34.5195C38.8696 35.1258 38.5292 35.7555 38.125 36.3384C37.7846 36.8748 37.3591 37.2945 37.0612 37.8309C36.5719 38.204 36.1464 38.6937 35.6145 39.0201C34.8061 39.5332 34.0615 40.0462 33.1892 40.396C32.6999 40.5825 32.2318 40.7458 31.7425 40.909C31.3596 41.0489 31.1681 41.6319 30.9341 41.935C30.6362 42.3315 30.2958 42.7979 30.0405 43.3109C30.0405 43.3109 30.0192 43.3109 30.0192 43.2876C29.6576 43.0777 29.3172 42.9611 28.9555 42.8678C29.0619 42.6346 29.1682 42.4247 29.2959 42.2848C29.7852 41.7252 28.8491 41.0023 28.5087 40.7458C27.5513 39.9996 26.6791 39.1134 25.8494 38.204C25.4026 37.7143 25.0409 37.1313 24.5941 36.6183C24.5941 36.595 24.5941 36.5716 24.5941 36.5483C24.5941 35.4523 24.6367 34.3796 24.3388 33.3303C24.0835 32.4675 23.5517 31.4647 22.8496 30.7885C23.0623 30.6719 23.2751 30.5786 23.4878 30.462C23.5729 30.4154 23.5729 30.2755 23.5091 30.2055C23.0623 29.7858 22.4241 29.6458 21.9348 29.2727C21.4242 28.853 20.8285 27.8503 20.2115 27.6404C20.0413 27.5938 19.8073 27.5238 19.6158 27.5704C19.169 27.687 18.8499 28.1301 18.5095 27.4538C18.1691 26.7776 17.8925 26.2646 17.9989 25.4251C18.0202 25.2618 18.0415 25.0053 18.084 24.7488C19.1052 24.8421 20.1477 25.3318 21.1263 25.5183C21.1476 25.5183 21.1476 25.5183 21.1689 25.5183C21.3178 25.7515 21.5093 25.9614 21.7646 26.0314C22.2326 26.1713 22.8921 25.7982 23.2538 25.5183C23.8708 25.052 25.36 23.886 24.7643 22.79C24.3601 22.0205 22.956 20.3182 22.0199 20.528C21.7646 20.5747 21.1901 20.8545 20.9987 20.8545L19.5732 20.8778C19.4669 20.8778 19.3605 20.8778 19.2328 20.8545C19.169 20.4114 18.9137 19.9684 18.9137 19.4787C18.9137 18.7791 19.2541 18.5226 18.7222 18.0096C18.5733 17.8697 18.467 17.823 18.2755 17.7997C17.8925 17.7064 17.8074 17.1234 17.8074 16.7503C17.8074 16.0041 16.4671 16.2373 16.0842 16.3073C15.8927 16.3539 15.6799 16.5171 15.4885 16.7037C11.9568 13.2525 3.02135 4.55441 1.87251 3.38845C0.638563 2.12921 0.830037 0.636786 0.830037 0.566828C0.872587 0.310317 0.723662 0.0538066 0.510913 0.00716821C0.276889 -0.0394701 0.0641395 0.147083 0.0215896 0.403594C0.0215896 0.473552 -0.276259 2.479 1.34064 4.11134C2.51076 5.30062 11.5313 14.0919 15.0204 17.4965C14.7438 18.0795 14.446 18.5926 14.0418 19.0123C13.2971 18.476 12.4887 18.0329 11.5951 17.9629C10.6591 17.893 10.191 18.3827 9.61658 18.9657C9.27618 18.9657 8.95706 18.9657 8.63793 18.8957C8.59539 18.4293 8.42519 18.0329 8.61666 17.4965C8.70176 17.24 8.55284 15.9342 8.55284 15.9342L7.85076 15.0247L6.59554 14.4417L4.99992 14.3251C4.99992 14.3251 4 15.048 3.51068 15.4445C3.00008 15.8409 2.10653 16.4705 2.08526 16.5638C2.12781 16.4472 2.02143 18.1961 1.89378 18.9423C1.78741 19.7119 1.97888 19.8518 2.36183 20.3881C2.82988 21.0644 3.4043 21.6707 3.95745 22.3003C4.27658 22.6734 5.17012 22.5801 5.72327 22.4635C5.59562 22.5568 5.4467 22.6734 5.31905 22.7667C4.91482 23.0698 4.63825 23.6761 4.21275 23.9326C3.42558 24.4457 2.38311 25.7515 2.61713 26.9175C2.74478 27.5238 2.8937 27.7103 3.29793 28.1301C3.89363 28.7364 4.2553 29.5992 4.80845 30.2288C5.3616 30.8351 6.02112 31.115 6.70192 31.1616C7.21252 32.4675 7.63801 33.8433 8.57411 34.916C9.87188 36.3851 11.2548 37.7609 12.1483 39.6031C12.361 40.0695 12.5738 41.0256 12.9993 41.3287C13.2759 41.5153 13.6801 41.2588 13.9992 41.0256C14.0205 41.0956 14.063 41.1655 14.0843 41.2355C13.4035 42.1216 13.2971 43.4974 13.6588 44.5934C13.829 45.0831 13.7865 45.8527 13.8077 46.3657C13.829 46.972 13.9354 47.5316 13.9567 48.1379C13.9779 49.0474 14.1481 50.1201 14.3609 51.0762C13.8503 51.1461 13.3184 51.1461 12.8291 51.1928C11.8504 51.2627 11.3399 51.9157 10.8931 52.8484C10.2761 54.131 11.5739 54.5274 12.8078 54.644C12.7653 54.8306 12.7653 54.9938 12.7653 55.1803C12.7653 55.2037 12.7653 55.2037 12.7653 55.227C12.6589 55.2037 12.5312 55.157 12.4249 55.1337C11.7654 54.9471 11.276 54.5507 10.8293 53.9911C10.6591 53.7812 10.4889 53.5713 10.2548 53.4547C10.2336 53.4547 10.2123 53.478 10.2123 53.5014C10.574 54.3875 11.0207 55.1803 11.659 55.8566C12.3398 56.5562 15.5736 57.1858 16.2544 57.1625C17.5734 57.2324 18.9775 57.0459 18.9775 57.0459V55.9032C18.9775 55.9032 18.5946 55.81 18.3819 55.81C18.3393 55.4835 18.318 55.1337 18.2755 54.7839C18.318 54.7606 18.3606 54.7373 18.4031 54.714C18.8925 54.0144 19.0414 53.1283 19.0414 52.2888C19.0414 51.7991 18.5521 51.4726 18.3819 51.0295C18.3606 50.9596 18.1904 50.7497 18.1691 50.6797C18.2755 50.19 18.0202 49.677 18.0627 49.164C18.1478 48.3478 18.8074 47.5783 18.8712 46.7621C18.9137 46.0859 19.1052 45.5728 19.3818 45.1065C19.6796 45.3163 19.9349 45.5029 20.1264 45.6661C21.1901 46.5756 22.2539 47.6716 23.5304 48.1846C24.4878 48.581 25.6153 49.8636 26.7216 49.5138C26.9556 49.4438 27.0407 48.7442 27.1258 48.5577C27.1471 48.5111 27.1684 48.4877 27.1684 48.4411C28.296 48.4178 29.4235 49.2806 30.5937 49.0008C32.0191 48.651 33.1466 47.2985 34.0189 46.0625C35.1252 44.5002 36.5081 43.1943 37.5931 41.5853C38.1463 40.7458 38.8271 40.1628 39.444 39.4166C39.6568 39.1601 39.8695 38.9735 40.1036 38.787C40.5078 38.7636 40.8907 38.7403 41.2949 38.7403C42.2949 38.7403 43.0608 39.2533 43.8054 39.9529C44.2947 40.4193 44.5713 40.8857 45.2095 41.1189C45.8265 41.3521 46.486 40.909 46.7413 40.2561C46.9115 39.8363 46.5286 39.2767 46.1456 38.8802C46.2307 38.717 46.3158 38.5538 46.4009 38.4138C46.486 38.2739 46.5924 38.1807 46.6775 38.0641C47.486 38.8802 47.7625 40.4193 47.486 41.5619C47.4647 41.6319 47.5498 41.6552 47.5711 41.6086C48.5497 40.0229 47.6987 37.7609 46.5711 36.6183ZM16.8288 55.0171C16.8075 55.2969 16.7437 55.5768 16.8075 55.81C16.0629 55.7633 15.3183 55.74 14.5736 55.6234C14.4247 55.6001 14.2545 55.5534 14.1056 55.5301C14.1056 55.227 14.1269 54.9238 14.1056 54.6207C14.2758 54.6207 14.4247 54.6207 14.5311 54.6207C15.297 54.6207 16.2331 53.7345 16.9564 53.9444C16.9352 54.2476 16.8501 54.9238 16.8288 55.0171ZM45.5925 37.2246C45.4648 37.3179 45.3585 37.4344 45.2521 37.551C45.2095 37.5977 45.167 37.6443 45.1244 37.691C45.0819 37.7143 45.0393 37.7609 44.9968 37.8076C44.8266 37.6443 44.6564 37.4811 44.4862 37.3412C44.0181 36.9214 43.3586 36.8048 42.8267 36.5017C42.3374 36.2218 42.1247 35.5689 41.9119 34.916C42.0396 34.7994 42.1672 34.6595 42.2736 34.5195C42.4438 34.2864 42.6778 34.1231 42.8267 33.8666C42.848 33.8433 42.8693 33.82 42.8906 33.82C43.0182 34.0298 43.1459 34.2164 43.2735 34.4263C43.699 35.1725 44.316 35.6855 44.8266 36.3151C45.0819 36.6183 45.4648 36.7582 45.7414 37.0847C45.7627 37.108 45.7627 37.108 45.784 37.1313C45.6989 37.1313 45.635 37.1779 45.5925 37.2246Z" fill="url(#paint0_linear)"/>
<defs>
<linearGradient id="paint0_linear" x1="24" y1="0" x2="24" y2="57.1782" gradientUnits="userSpaceOnUse">
<stop stop-color="#3882C2"/>
<stop offset="1" stop-color="#134694"/>
</linearGradient>
</defs>
</svg>
