<svg width="48" height="37" viewBox="0 0 48 37" fill="none" xmlns="http://www.w3.org/2000/svg">
<g clip-path="url(#clip0)">
<path d="M48 26.1008H30.6589C30.3279 25.8461 30.0223 25.5915 29.7677 25.3114C29.4621 24.9804 29.1056 24.7257 28.8 24.4202C28.7491 24.0637 28.6982 23.7326 28.7746 23.3252C28.851 22.7141 28.8764 22.1029 28.9019 21.4918C29.1565 21.3645 29.4621 21.2117 29.5385 21.1607C29.895 20.9316 30.277 20.6769 30.5061 20.3204C30.5571 20.244 30.8881 19.913 30.8881 19.7602C30.8881 19.2764 30.6844 18.818 30.6589 18.3087C30.608 17.443 30.7099 16.4499 30.4807 15.6095C30.4298 15.3804 30.2515 15.0748 30.0987 14.8965C29.6913 14.3873 29.5894 13.9034 29.5894 13.2414C29.5894 12.3756 29.4876 11.5098 29.3093 10.644C29.2584 10.4148 29.0038 10.2111 28.851 10.0583C28.4436 9.67639 28.1889 9.21803 27.8324 8.83607C27.5014 8.47957 27.2722 8.07214 26.9412 7.74111C26.712 7.51193 26.3046 7.38461 25.999 7.23182C25.6425 7.05358 25.1332 7.05358 24.7512 6.92625C24.6748 6.90079 24.5985 6.87533 24.5221 6.84986C24.5475 6.67161 24.573 6.49336 24.573 6.31511C24.573 6.08594 24.5985 5.85676 24.5475 5.65305C24.5475 5.62758 24.5221 5.32201 24.4966 5.01644C24.6239 4.94005 24.7258 4.83819 24.8276 4.71087C24.904 4.60901 24.904 4.43076 24.904 4.30344C24.9295 3.94694 25.0059 3.61591 25.0568 3.25941C25.0823 3.10663 25.2351 2.57188 25.0313 2.44456C24.8531 2.29177 24.6494 2.21538 24.4457 2.13899C24.3438 1.04403 23.6563 0.0763876 22.3831 0.0763876C21.8483 0.0763876 22.0011 0.254637 21.2626 0.0763876C21.0589 0.0254592 20.7788 -0.0254691 20.5751 0.0254592C20.1168 0.15278 19.2764 0.916706 19.0727 1.3496C18.8181 1.90981 18.9199 2.08806 18.9199 2.6992C18.9199 3.08116 18.7672 3.43766 18.7417 3.84509C18.7417 3.99787 18.156 4.68541 18.4616 4.91458C18.6398 5.0419 18.7926 5.19469 18.9709 5.34748C18.8945 5.52572 18.8181 5.72944 18.7672 5.85676C18.7162 5.98408 18.6908 6.1114 18.6653 6.23872C18.0032 6.34058 17.3412 6.74801 16.7809 7.00265C15.7878 7.43554 14.8711 7.99575 13.9799 8.58143C13.0886 9.1671 12.834 9.70185 12.4011 10.6695C11.8918 11.8154 11.6117 13.0631 11.3825 14.2854C11.2043 15.2276 10.8733 16.1952 10.8223 17.1629C10.7714 17.9522 10.2112 19.1745 10.6441 19.8875C11.1279 20.7278 11.408 21.7973 12.0955 22.5103C12.1465 22.5613 12.1974 22.5867 12.2738 22.6377C12.2229 23.427 12.0955 24.1655 12.0191 24.9549C11.9937 25.3369 12.0191 25.7188 12.0701 26.1008H6.54434C6.03506 26.0499 5.19474 25.8716 4.63453 25.1077C3.76875 23.9363 2.64832 21.2117 1.50243 21.0334C0.356546 20.8297 -0.0508816 21.3899 4.67952e-05 22.052C0.0509752 22.7395 4.17617 26.7119 4.65999 26.8647C4.78731 26.8902 7.81755 26.9156 12.2229 26.9156C12.4011 27.6286 12.6812 28.3162 12.9359 28.9528C13.3942 30.1496 13.547 31.2191 13.6743 32.4668C13.7507 33.078 13.5979 33.7146 13.7507 34.3257C13.9035 34.9369 14.5656 35.217 14.973 35.5735C15.686 36.2101 16.6282 36.7703 17.5958 36.3883C18.6144 35.9809 19.0218 35.5735 19.4038 34.5294C19.6584 33.8419 19.6584 33.1034 19.913 32.4159C20.1677 31.7029 20.4733 31.0663 20.7788 30.4042C21.008 29.9459 21.3645 29.6912 21.7465 29.4621C21.721 29.7167 21.721 29.9713 21.6955 30.226C21.6191 30.8371 21.5173 31.5756 22.0775 31.9321C22.3321 32.0849 23.3507 32.2631 23.5799 32.0085C23.8091 31.7793 23.9619 31.4228 24.0892 31.0663C24.8276 31.9066 25.5406 32.7979 26.1772 33.6382C26.4573 34.0202 26.9666 34.4021 27.3231 34.7332C27.6542 35.0387 28.138 35.2679 28.5709 35.4207C29.4112 35.6753 30.5825 35.5989 31.4483 35.4716C31.7284 35.4207 32.034 34.9623 32.2377 34.7841C32.7979 34.2748 33.1544 33.5618 33.6128 32.9761C34.0457 32.4414 33.3327 31.3719 33.1035 30.9135C32.7725 30.2515 32.5942 29.8695 32.5942 29.1056C32.5942 28.3926 32.2886 28.0106 31.9321 27.3995C31.8303 27.2212 31.703 27.043 31.5502 26.8902C40.3863 26.8647 47.9746 26.8393 47.9746 26.8393V26.1008H48Z" fill="url(#paint0_linear)"/>
</g>
<defs>
<linearGradient id="paint0_linear" x1="23.9979" y1="0.00436401" x2="23.9979" y2="36.5129" gradientUnits="userSpaceOnUse">
<stop stop-color="#3882C2"/>
<stop offset="1" stop-color="#134694"/>
</linearGradient>
<clipPath id="clip0">
<rect width="48" height="36.5411" fill="white"/>
</clipPath>
</defs>
</svg>
