<svg width="24" height="24" viewBox="0 0 24 24" fill="none" xmlns="http://www.w3.org/2000/svg">
<rect width="24" height="24" fill="url(#paint0_linear)"/>
<path fill-rule="evenodd" clip-rule="evenodd" d="M5.13317 10.8554C4.50111 10.8554 3.98872 11.3678 3.98872 11.9999C3.98872 12.6319 4.50111 13.1443 5.13317 13.1443L10.8556 13.1443L10.8556 18.8669C10.8556 19.499 11.368 20.0114 12 20.0114C12.6321 20.0114 13.1445 19.499 13.1445 18.8669L13.1445 13.1443L18.8666 13.1443C19.4987 13.1443 20.011 12.6319 20.011 11.9999C20.011 11.3678 19.4987 10.8554 18.8666 10.8554L13.1445 10.8554L13.1445 5.13349C13.1445 4.50143 12.6321 3.98904 12 3.98904C11.3679 3.98904 10.8556 4.50143 10.8556 5.13349L10.8556 10.8554L5.13317 10.8554Z" fill="white"/>
<defs>
<linearGradient id="paint0_linear" x1="12" y1="0" x2="12" y2="24" gradientUnits="userSpaceOnUse">
<stop stop-color="#3882C2"/>
<stop offset="1" stop-color="#134694"/>
</linearGradient>
</defs>
</svg>
