<svg width="84" height="84" viewBox="0 0 84 84" fill="none" xmlns="http://www.w3.org/2000/svg">
<path d="M48.1523 13.2891C48.1523 14.4226 49.0696 15.3398 50.2031 15.3398C51.3367 15.3398 52.2539 14.4226 52.2539 13.2891V9.05078C52.2539 7.91725 51.3367 7 50.2031 7C49.0696 7 48.1523 7.91725 48.1523 9.05078V13.2891Z" fill="url(#paint0_linear)"/>
<path d="M37.1514 12.5419C36.3504 13.343 36.3504 14.6408 37.1514 15.4419L40.0534 18.3439C40.8545 19.1449 42.1523 19.1449 42.9534 18.3439C43.7544 17.5428 43.7544 16.245 42.9534 15.4439L40.0514 12.5419C39.2503 11.7409 37.9526 11.7409 37.1514 12.5419Z" fill="url(#paint1_linear)"/>
<path d="M57.4529 15.4439C56.6519 16.245 56.6519 17.5428 57.4529 18.3439C58.254 19.1449 59.5518 19.1449 60.3529 18.3439L63.2549 15.4419C64.0559 14.6408 64.0559 13.343 63.2549 12.5419C62.4538 11.7409 61.156 11.7409 60.3549 12.5419L57.4529 15.4439Z" fill="url(#paint2_linear)"/>
<path d="M37.8984 48.1523C41.2963 48.1523 44.0508 45.3978 44.0508 42C44.0508 38.6022 41.2963 35.8477 37.8984 35.8477C34.5006 35.8477 31.7461 38.6022 31.7461 42C31.7461 45.3978 34.5006 48.1523 37.8984 48.1523Z" fill="url(#paint3_linear)"/>
<path d="M37.8945 60.5938C45.603 60.5938 52.4202 55.8087 55.2159 48.4548C57.1486 43.3679 62.4138 39.9492 68.3197 39.9492H74.9492C76.0828 39.9492 77 39.032 77 37.8984V25.5938C77 24.4602 76.0828 23.543 74.9492 23.543H58.4063C57.2727 23.543 56.3555 24.4602 56.3555 25.5938C56.3555 26.7252 55.4362 27.6445 54.3047 27.6445C53.1732 27.6445 52.2539 26.7252 52.2539 25.5938C52.2539 24.4602 51.3367 23.543 50.2031 23.543H37.8985C27.7702 23.543 19.3739 31.7486 19.4462 42.1727C19.5165 52.3 27.8172 60.5938 37.8945 60.5938ZM37.8985 31.7461C43.5522 31.7461 48.1524 36.3463 48.1524 42C48.1524 47.6537 43.5522 52.2539 37.8985 52.2539C32.2447 52.2539 27.6445 47.6537 27.6445 42C27.6445 36.3463 32.2447 31.7461 37.8985 31.7461Z" fill="url(#paint4_linear)"/>
<path d="M11.2383 47.7746V58.543C11.2383 68.7207 19.5176 77 29.6953 77H37.8984C41.291 77 44.0508 74.2402 44.0508 70.8477C44.0508 67.4551 41.291 64.6953 37.8984 64.6953H21.4922C18.0996 64.6953 15.3398 61.9355 15.3398 58.543V48.1523H16.2163C15.6766 46.2546 15.3587 44.265 15.3439 42.2022C15.3286 40.0075 15.7229 37.8964 16.3028 35.8477H13.2891C9.89652 35.8477 7 38.6075 7 42C7 44.6701 8.85637 46.9252 11.2383 47.7746ZM21.4922 68.7969H37.8984C39.0299 68.7969 39.9492 69.7162 39.9492 70.8477C39.9492 71.9791 39.0299 72.8984 37.8984 72.8984H29.6953C25.6899 72.8984 22.0609 71.2482 19.4555 68.5926C20.1123 68.7267 20.7952 68.7969 21.4922 68.7969Z" fill="url(#paint5_linear)"/>
<defs>
<linearGradient id="paint0_linear" x1="50.2031" y1="7" x2="50.2031" y2="15.3398" gradientUnits="userSpaceOnUse">
<stop stop-color="#3882C2"/>
<stop offset="1" stop-color="#134694"/>
</linearGradient>
<linearGradient id="paint1_linear" x1="40.0524" y1="11.9412" x2="40.0524" y2="18.9447" gradientUnits="userSpaceOnUse">
<stop stop-color="#3882C2"/>
<stop offset="1" stop-color="#134694"/>
</linearGradient>
<linearGradient id="paint2_linear" x1="60.3539" y1="11.9412" x2="60.3539" y2="18.9447" gradientUnits="userSpaceOnUse">
<stop stop-color="#3882C2"/>
<stop offset="1" stop-color="#134694"/>
</linearGradient>
<linearGradient id="paint3_linear" x1="37.8984" y1="35.8477" x2="37.8984" y2="48.1523" gradientUnits="userSpaceOnUse">
<stop stop-color="#3882C2"/>
<stop offset="1" stop-color="#134694"/>
</linearGradient>
<linearGradient id="paint4_linear" x1="48.2229" y1="23.543" x2="48.2229" y2="60.5938" gradientUnits="userSpaceOnUse">
<stop stop-color="#3882C2"/>
<stop offset="1" stop-color="#134694"/>
</linearGradient>
<linearGradient id="paint5_linear" x1="25.5254" y1="35.8477" x2="25.5254" y2="77" gradientUnits="userSpaceOnUse">
<stop stop-color="#3882C2"/>
<stop offset="1" stop-color="#134694"/>
</linearGradient>
</defs>
</svg>
