<svg width="84" height="84" viewBox="0 0 84 84" fill="none" xmlns="http://www.w3.org/2000/svg">
<g clip-path="url(#clip0)">
<path d="M45.655 15.4576C45.712 15.5294 45.769 15.6005 45.8402 15.6857H50.5244C51.3807 15.6838 52.0754 14.9904 52.0773 14.1335C52.0773 13.2651 52.6471 12.8383 53.5014 12.8383H61.1183C61.3394 12.8389 61.5599 12.8101 61.7733 12.753C63.4511 12.2019 64.4535 10.4849 64.1087 8.75326C63.1121 5.57959 60.5351 1.42407 53.8135 1.42407C43.1632 1.42407 40.8002 9.56462 45.4698 15.2442C45.5274 15.3192 45.589 15.3903 45.655 15.4576Z" fill="url(#paint0_linear)"/>
<path d="M64.4913 68.4205L41.1783 44.9525L39.5768 43.3394L39.5639 43.3279C39.5357 43.3567 39.5159 43.3907 39.4858 43.4176C38.5462 44.2956 37.2849 44.7449 36.0019 44.6596L64.6649 76.8834C65.6628 78.0056 67.1766 78.5216 68.6519 78.2421L78.8644 76.3143C81.5164 76.09 83.5186 73.8117 83.4006 71.1526C83.4365 70.0997 83.0001 69.0851 82.2099 68.3866C81.4203 67.6886 80.3596 67.3797 79.3188 67.5451C79.1163 67.5752 78.9055 67.6105 78.6824 67.6534L68.3084 69.6081C66.9183 69.8689 65.4885 69.4242 64.4913 68.4205Z" fill="url(#paint1_linear)"/>
<path d="M37.071 83.2335C38.1451 83.9391 39.4615 84.1704 40.7118 83.8743C41.9616 83.5776 43.0344 82.7797 43.6772 81.6678L45.1154 79.2753L36.8005 75.1179C36.7691 75.1045 36.7403 75.0852 36.7153 75.0615L35.7187 76.7554C34.3927 78.9344 34.9842 81.7678 37.071 83.2335Z" fill="url(#paint2_linear)"/>
<path d="M8.0977 83.2053L10.3325 81.7812L5.02208 74.1784C5.00798 74.1643 4.99389 74.1361 4.97915 74.1213L2.88665 75.4454C0.74352 76.8848 0.17313 79.7881 1.61192 81.9312C3.05136 84.0737 5.95458 84.6441 8.0977 83.2053Z" fill="url(#paint3_linear)"/>
<path d="M12.739 80.2435C18.7563 76.4174 23.911 71.3793 27.8736 65.4505L28.799 64.0412C29.3739 63.1798 30.3403 62.662 31.376 62.6601H44.0476L38.1675 72.6124L46.4824 76.7692C46.517 76.7852 46.5503 76.8045 46.5817 76.8262L52.3055 67.2732L46.3683 60.5958L30.4935 42.7554C29.3829 45.3394 28.0492 47.8216 26.5066 50.1736L18.6192 62.1614C16.171 65.8844 12.964 69.0478 9.20772 71.4447L7.38568 72.5977L12.7102 80.2005C12.7249 80.2153 12.7249 80.2294 12.739 80.2435Z" fill="url(#paint4_linear)"/>
<path d="M23.1041 21.3562C19.9701 24.2966 19.8048 29.218 22.7336 32.3622L29.952 40.065L36.5582 33.4587L34.5939 31.4226C34.5151 31.3419 34.4478 31.2509 34.3946 31.1522L31.0915 27.6068L37.242 26.7525L36.2314 29.1443C36.3858 29.218 36.5262 29.3192 36.6441 29.4436L42.5665 35.566C44.2751 37.3739 44.261 40.5059 43.1933 42.9407L46.9662 46.7424L49.7426 42.2004L49.8989 45.4754C49.9553 47.1487 50.1989 48.8106 50.6251 50.4301L61.0331 60.9086L65.0341 58.1182C65.0636 58.0938 65.0976 58.0746 65.1335 58.0611L61.8303 52.3662C60.2172 49.5373 59.2995 46.3649 59.154 43.1118L58.6695 31.9635C58.5503 29.4276 57.207 27.1075 55.0677 25.7418L49.7201 22.3387C51.1397 23.168 52.7541 23.6057 54.3986 23.6057C59.0655 23.6141 62.9147 19.9527 63.1403 15.2915C62.9551 15.3626 62.7558 15.4338 62.5565 15.4908C62.0886 15.6235 61.6047 15.6908 61.1183 15.6901H54.6402C53.9916 17.4 52.3548 18.5325 50.5257 18.5376H46.1972C46.8637 19.9399 47.8968 21.1358 49.1875 21.9984L43.9477 18.6658C42.2769 17.5955 40.2568 17.2129 38.3098 17.5974L25.7804 19.9898C24.7761 20.1808 23.8475 20.6551 23.1041 21.3562Z" fill="url(#paint5_linear)"/>
<path d="M66.5146 66.4192C66.5954 66.4981 66.6864 66.5647 66.7851 66.6185C67.9233 65.1304 68.0585 63.1046 67.1267 61.4786L66.5717 60.5103L63.0692 62.9591L66.5146 66.4192Z" fill="url(#paint6_linear)"/>
<path d="M39.5909 39.3243L40.9438 40.6913C41.3014 39.6268 41.138 38.4566 40.5022 37.5305L38.5373 35.4944L32.4437 41.5886L36.2025 41.8161C36.6544 41.8385 37.0998 41.6969 37.4555 41.4175L39.5909 39.3243Z" fill="url(#paint7_linear)"/>
<path d="M20.7546 2.84746H36.416C37.2023 2.84746 37.84 2.20978 37.84 1.42405C37.84 0.637683 37.2023 0 36.416 0H20.7546C19.9682 0 19.3312 0.637683 19.3312 1.42405C19.3312 2.20978 19.9682 2.84746 20.7546 2.84746Z" fill="url(#paint8_linear)"/>
<path d="M36.416 8.54229C37.2023 8.54229 37.84 7.90525 37.84 7.11888C37.84 6.33251 37.2023 5.69482 36.416 5.69482H29.2976C28.5113 5.69482 27.8736 6.33251 27.8736 7.11888C27.8736 7.90525 28.5113 8.54229 29.2976 8.54229H36.416Z" fill="url(#paint9_linear)"/>
<path d="M12.2122 42.7134H22.1786C22.965 42.7134 23.602 42.0757 23.602 41.2894C23.602 40.503 22.965 39.866 22.1786 39.866H12.2122C11.4258 39.866 10.7881 40.503 10.7881 41.2894C10.7881 42.0757 11.4258 42.7134 12.2122 42.7134Z" fill="url(#paint10_linear)"/>
<path d="M22.1787 45.5605H17.9071C17.1208 45.5605 16.4831 46.1982 16.4831 46.984C16.4831 47.7703 17.1208 48.408 17.9071 48.408H22.1787C22.965 48.408 23.6021 47.7703 23.6021 46.984C23.6021 46.1982 22.965 45.5605 22.1787 45.5605Z" fill="url(#paint11_linear)"/>
</g>
<defs>
<linearGradient id="paint0_linear" x1="53.6824" y1="1.42407" x2="53.6824" y2="15.6857" gradientUnits="userSpaceOnUse">
<stop stop-color="#3882C2"/>
<stop offset="1" stop-color="#134694"/>
</linearGradient>
<linearGradient id="paint1_linear" x1="59.7037" y1="43.3279" x2="59.7037" y2="78.3168" gradientUnits="userSpaceOnUse">
<stop stop-color="#3882C2"/>
<stop offset="1" stop-color="#134694"/>
</linearGradient>
<linearGradient id="paint2_linear" x1="40.0639" y1="75.0615" x2="40.0639" y2="84.0002" gradientUnits="userSpaceOnUse">
<stop stop-color="#3882C2"/>
<stop offset="1" stop-color="#134694"/>
</linearGradient>
<linearGradient id="paint3_linear" x1="5.57517" y1="74.1213" x2="5.57517" y2="83.9994" gradientUnits="userSpaceOnUse">
<stop stop-color="#3882C2"/>
<stop offset="1" stop-color="#134694"/>
</linearGradient>
<linearGradient id="paint4_linear" x1="29.8456" y1="42.7554" x2="29.8456" y2="80.2435" gradientUnits="userSpaceOnUse">
<stop stop-color="#3882C2"/>
<stop offset="1" stop-color="#134694"/>
</linearGradient>
<linearGradient id="paint5_linear" x1="42.8872" y1="15.2915" x2="42.8872" y2="60.9086" gradientUnits="userSpaceOnUse">
<stop stop-color="#3882C2"/>
<stop offset="1" stop-color="#134694"/>
</linearGradient>
<linearGradient id="paint6_linear" x1="65.4058" y1="60.5103" x2="65.4058" y2="66.6185" gradientUnits="userSpaceOnUse">
<stop stop-color="#3882C2"/>
<stop offset="1" stop-color="#134694"/>
</linearGradient>
<linearGradient id="paint7_linear" x1="36.7868" y1="35.4944" x2="36.7868" y2="41.8184" gradientUnits="userSpaceOnUse">
<stop stop-color="#3882C2"/>
<stop offset="1" stop-color="#134694"/>
</linearGradient>
<linearGradient id="paint8_linear" x1="28.5856" y1="0" x2="28.5856" y2="2.84746" gradientUnits="userSpaceOnUse">
<stop stop-color="#3882C2"/>
<stop offset="1" stop-color="#134694"/>
</linearGradient>
<linearGradient id="paint9_linear" x1="32.8568" y1="5.69482" x2="32.8568" y2="8.54229" gradientUnits="userSpaceOnUse">
<stop stop-color="#3882C2"/>
<stop offset="1" stop-color="#134694"/>
</linearGradient>
<linearGradient id="paint10_linear" x1="17.1951" y1="39.866" x2="17.1951" y2="42.7134" gradientUnits="userSpaceOnUse">
<stop stop-color="#3882C2"/>
<stop offset="1" stop-color="#134694"/>
</linearGradient>
<linearGradient id="paint11_linear" x1="20.0426" y1="45.5605" x2="20.0426" y2="48.408" gradientUnits="userSpaceOnUse">
<stop stop-color="#3882C2"/>
<stop offset="1" stop-color="#134694"/>
</linearGradient>
<clipPath id="clip0">
<rect width="84" height="84" fill="white"/>
</clipPath>
</defs>
</svg>
