<svg width="84" height="84" viewBox="0 0 84 84" fill="none" xmlns="http://www.w3.org/2000/svg">
<path d="M47.1173 15.3796V10.517H52.1471C52.8927 10.517 53.4956 9.91282 53.4956 9.16847V5.34852C53.4956 4.60417 52.8929 4 52.1471 4H30.9603C30.2159 4 29.6117 4.60417 29.6117 5.34852V9.16863C29.6117 9.91298 30.2159 10.5172 30.9603 10.5172H36.884V15.3784C21.3592 17.8337 9.48746 31.2723 9.48746 47.4876C9.48746 65.4435 24.044 80 41.9999 80C59.9558 80 74.5123 65.4435 74.5123 47.4876C74.5123 31.2723 62.6434 17.8337 47.1173 15.3796ZM41.9999 73.7081C27.5418 73.7081 15.7793 61.9455 15.7793 47.4876C15.7793 33.0296 27.5419 21.267 41.9999 21.267C56.4594 21.267 68.2205 33.0296 68.2205 47.4876C68.2205 61.9469 56.4594 73.7081 41.9999 73.7081Z" fill="url(#paint0_linear)"/>
<path d="M41.5536 23.968V47.4877H65.0734C65.0732 34.4981 54.5432 23.968 41.5536 23.968Z" fill="url(#paint1_linear)"/>
<path d="M41.5536 63.1351H45.7541V70.1011H41.5536V63.1351ZM19.7438 44.1853H26.7395V49.4294H19.7438V44.1853ZM58.2554 56.7541L62.0824 58.9642C62.4221 58.3548 62.7363 57.7277 63.0236 57.0872L59.3032 54.9378L58.2554 56.7541ZM51.3015 62.9179L53.9513 67.4716C54.5486 67.1008 55.1284 66.7057 55.6895 66.2836L53.1138 61.8635L51.3015 62.9179ZM32.3033 67.485L30.4909 66.4291L33.1502 61.8647L34.9638 62.9192L32.3033 67.485ZM23.4292 59.4025L22.3814 57.5862L26.9661 54.9378L28.0139 56.7554L23.4292 59.4025ZM26.962 38.6782L22.3786 36.0298L23.4277 34.2135L28.0111 36.8619L26.962 38.6782ZM33.1473 31.7512L30.4881 27.1867L32.3018 26.1308L34.961 30.6953L33.1473 31.7512ZM13.8026 16.8576C11.0679 19.3846 10.9007 23.6511 13.4277 26.3858L23.3306 17.2325C20.8023 14.4978 16.5371 14.3306 13.8026 16.8576Z" fill="url(#paint2_linear)"/>
<defs>
<linearGradient id="paint0_linear" x1="41.9999" y1="4" x2="41.9999" y2="80" gradientUnits="userSpaceOnUse">
<stop stop-color="#3882C2"/>
<stop offset="1" stop-color="#134694"/>
</linearGradient>
<linearGradient id="paint1_linear" x1="53.3135" y1="23.968" x2="53.3135" y2="47.4877" gradientUnits="userSpaceOnUse">
<stop stop-color="#3882C2"/>
<stop offset="1" stop-color="#134694"/>
</linearGradient>
<linearGradient id="paint2_linear" x1="37.3302" y1="15.0667" x2="37.3302" y2="70.1011" gradientUnits="userSpaceOnUse">
<stop stop-color="#3882C2"/>
<stop offset="1" stop-color="#134694"/>
</linearGradient>
</defs>
</svg>
