<svg width="84" height="84" viewBox="0 0 84 84" fill="none" xmlns="http://www.w3.org/2000/svg">
<path d="M58.5442 24.7131C58.5442 24.0271 58.2894 23.5062 57.7854 23.1505C57.494 22.9403 57.0041 22.7446 56.3208 22.5569V26.883C57.2589 26.8407 57.9055 26.4968 58.2612 25.8553C58.4517 25.5306 58.5442 25.1439 58.5442 24.7131Z" fill="url(#paint0_linear)"/>
<path d="M55.5423 16.9932C54.8145 17.0213 54.3049 17.2395 53.9938 17.6511C53.6831 18.0626 53.5316 18.4939 53.5316 18.942C53.5316 19.4854 53.7108 19.9082 54.0721 20.2188C54.4391 20.5239 54.9262 20.7397 55.5367 20.8598L55.5423 16.9932Z" fill="url(#paint1_linear)"/>
<path d="M55.9234 31.6373C61.1453 31.6373 65.3845 27.4037 65.3845 22.1818C65.3845 16.9598 61.1453 12.7234 55.9234 12.7234C50.7014 12.7234 46.4678 16.9598 46.4678 22.1818C46.4673 27.4065 50.6982 31.6373 55.9234 31.6373ZM52.9102 21.2324C52.342 20.7059 52.0534 19.9753 52.0534 19.0429C52.0534 18.2085 52.3556 17.4582 52.9689 16.789C53.5822 16.1199 54.4335 15.7783 55.5423 15.7698V14.675H56.3208V15.7529C57.4156 15.8285 58.2499 16.1504 58.8351 16.7163C59.4146 17.2846 59.7201 18.0293 59.7478 18.9617H58.3086C58.2692 18.5445 58.1547 18.186 57.9698 17.8838C57.6254 17.3296 57.074 17.0382 56.3124 17.0129V21.0199C57.5864 21.3756 58.4517 21.7116 58.9106 22.0222C59.6497 22.5374 60.0195 23.3019 60.0195 24.3098C60.0195 25.7688 59.5437 26.8044 58.5944 27.4205C58.0679 27.7622 57.3091 27.986 56.318 28.0953V29.6913H55.5395V28.0953C53.9464 27.9916 52.86 27.4262 52.2885 26.4013C51.9778 25.8499 51.8211 25.0991 51.8211 24.1559H53.28C53.3274 24.9063 53.4452 25.4553 53.6357 25.8025C53.9745 26.4215 54.6155 26.7687 55.5451 26.8471V22.3643C54.3495 22.1367 53.4734 21.759 52.9102 21.2324Z" fill="url(#paint2_linear)"/>
<path d="M39.725 8.99103C39.725 8.4786 39.5345 8.08677 39.1568 7.81788C38.9386 7.66115 38.5716 7.51568 38.0564 7.37256V10.6179C38.7565 10.587 39.2492 10.3294 39.5153 9.84789C39.6523 9.60388 39.725 9.31857 39.725 8.99103Z" fill="url(#paint3_linear)"/>
<path d="M37.4712 3.20605C36.925 3.22858 36.5416 3.39094 36.3093 3.70159C36.0798 4.00942 35.9621 4.33462 35.9621 4.67061C35.9621 5.07933 36.0991 5.39561 36.3708 5.62837C36.6425 5.85783 37.009 6.0202 37.4712 6.10982V3.20605Z" fill="url(#paint4_linear)"/>
<path d="M37.7542 14.1875C41.6687 14.1875 44.8465 11.0097 44.8465 7.09236C44.8465 3.175 41.6682 0 37.7542 0C33.8401 0 30.6613 3.175 30.6613 7.09236C30.6613 11.0125 33.8396 14.1875 37.7542 14.1875ZM35.4942 6.38097C35.0658 5.98632 34.8532 5.44011 34.8532 4.73997C34.8532 4.11539 35.0827 3.54994 35.5421 3.04877C36.0015 2.5476 36.6453 2.28998 37.4684 2.28435V1.46455H38.0535V2.27355C38.871 2.33221 39.5012 2.57013 39.9437 2.99574C40.3778 3.42136 40.6072 3.98118 40.627 4.6785H39.5462C39.5153 4.36785 39.4341 4.09615 39.2943 3.8695C39.0282 3.45515 38.6195 3.23647 38.054 3.21723V6.22142C39.0089 6.48749 39.6528 6.73948 39.9972 6.97458C40.5486 7.36078 40.8287 7.93234 40.8287 8.69113C40.8287 9.7859 40.473 10.5616 39.7621 11.0233C39.3675 11.2781 38.7987 11.4461 38.054 11.5301V12.7286H37.4688V11.5301C36.2704 11.4518 35.4557 11.029 35.0329 10.2589C34.7978 9.84456 34.6772 9.28192 34.6772 8.57334H35.7776C35.8086 9.13598 35.8982 9.54752 36.0409 9.80796C36.2985 10.273 36.7772 10.533 37.4745 10.5921V7.22939C36.5777 7.05858 35.917 6.77608 35.4942 6.38097Z" fill="url(#paint5_linear)"/>
<path d="M32.9016 40.5495C31.3338 40.2778 30.2108 39.6086 29.5834 38.4885C29.1747 37.7743 28.9757 36.8058 28.9757 35.5848H30.8575C30.9161 36.5566 31.0757 37.2647 31.3225 37.7128C31.7622 38.5162 32.5825 38.9644 33.7838 39.0652V33.2666C32.2465 32.9752 31.1099 32.4909 30.376 31.8105C29.6397 31.1273 29.2728 30.1836 29.2728 28.9795C29.2728 27.9016 29.6702 26.9326 30.4572 26.0645C31.2498 25.202 32.3558 24.7623 33.7838 24.7458V23.332H34.7945V24.7261C36.2056 24.827 37.2891 25.2414 38.0399 25.972C38.7987 26.7055 39.1934 27.6717 39.23 28.873H37.3708C37.3177 28.3352 37.1746 27.8706 36.9339 27.4788C36.4857 26.7646 35.7748 26.3868 34.7945 26.353V31.5332C36.4412 31.9954 37.5524 32.429 38.1432 32.8297C39.1037 33.4961 39.5796 34.4815 39.5796 35.7865C39.5796 37.6739 38.9662 39.0122 37.7429 39.8071C37.2361 40.1319 36.5139 40.3477 35.6711 40.5101C38.1211 40.5941 40.5598 40.9887 42.9118 41.6973C45.1323 39.4796 46.5096 36.4191 46.5096 33.0343C46.5096 26.2808 41.03 20.8069 34.2821 20.8069C27.5314 20.8069 22.0547 26.2808 22.0547 33.0343C22.0547 36.5233 23.5192 39.6621 25.8655 41.8878C28.1442 41.1459 30.513 40.7006 32.9016 40.5495Z" fill="url(#paint6_linear)"/>
<path d="M31.8992 30.506C32.3642 30.9035 32.9996 31.1808 33.7922 31.3375V26.3367C32.857 26.3733 32.1878 26.6558 31.7903 27.1879C31.3901 27.72 31.1939 28.2771 31.1939 28.8594C31.1934 29.5595 31.4285 30.1057 31.8992 30.506Z" fill="url(#paint7_linear)"/>
<path d="M36.6927 34.2915C36.3145 34.0226 35.6875 33.7678 34.7969 33.5271V39.1216C36.0094 39.0629 36.8438 38.6204 37.3055 37.7917C37.5491 37.3661 37.6697 36.8706 37.6697 36.3131C37.6702 35.4229 37.345 34.7537 36.6927 34.2915Z" fill="url(#paint8_linear)"/>
<path d="M76.2066 65.1559C77.6988 63.5961 77.8363 60.7097 77.5928 56.8482C75.8373 56.7276 73.2469 57.0218 72.3314 56.8482C70.1081 52.424 66.9134 48.9745 62.3634 46.8774C62.5174 43.9905 62.904 41.3364 64.5727 39.9558C60.5155 39.6757 57.0744 42.4227 54.8877 44.9398C52.9192 42.8985 50.0102 41.2716 46.58 40.1266L44.4491 43.9178C38.107 41.731 31.1489 41.7564 24.8463 43.982L22.0659 40.2468C22.0603 40.2355 22.049 40.2242 22.0406 40.2158C17.692 41.655 13.6967 43.9088 10.5832 47.1542C8.55879 47.0003 8.78826 42.8952 11.4147 43.5564C7.14211 40.6442 4.78408 48.6272 8.92012 49.6465C5.47342 54.5718 5.14307 65.1446 9.75165 69.0254C10.4236 74.855 11.4541 80.3289 14.2903 83.9999H23.5919C23.3484 82.1069 23.102 80.091 23.3146 77.8845C28.9678 79.167 35.6796 79.542 42.4134 78.9934C43.4524 80.7156 44.4575 82.4711 45.7006 83.9971H54.9154C54.5822 81.5584 54.2096 79.0047 54.876 76.4988C57.0937 76.0816 68.4981 73.1835 76.2066 65.1559ZM63.4944 52.7938C64.7599 52.7938 65.782 53.8186 65.782 55.0786C65.782 56.347 64.7599 57.369 63.4944 57.369C62.2344 57.369 61.2067 56.3414 61.2067 55.0786C61.2039 53.8215 62.2344 52.7938 63.4944 52.7938Z" fill="url(#paint9_linear)"/>
<defs>
<linearGradient id="paint0_linear" x1="57.4325" y1="22.5569" x2="57.4325" y2="26.883" gradientUnits="userSpaceOnUse">
<stop stop-color="#3882C2"/>
<stop offset="1" stop-color="#134694"/>
</linearGradient>
<linearGradient id="paint1_linear" x1="54.5369" y1="16.9932" x2="54.5369" y2="20.8598" gradientUnits="userSpaceOnUse">
<stop stop-color="#3882C2"/>
<stop offset="1" stop-color="#134694"/>
</linearGradient>
<linearGradient id="paint2_linear" x1="55.9262" y1="12.7234" x2="55.9262" y2="31.6373" gradientUnits="userSpaceOnUse">
<stop stop-color="#3882C2"/>
<stop offset="1" stop-color="#134694"/>
</linearGradient>
<linearGradient id="paint3_linear" x1="38.8907" y1="7.37256" x2="38.8907" y2="10.6179" gradientUnits="userSpaceOnUse">
<stop stop-color="#3882C2"/>
<stop offset="1" stop-color="#134694"/>
</linearGradient>
<linearGradient id="paint4_linear" x1="36.7166" y1="3.20605" x2="36.7166" y2="6.10982" gradientUnits="userSpaceOnUse">
<stop stop-color="#3882C2"/>
<stop offset="1" stop-color="#134694"/>
</linearGradient>
<linearGradient id="paint5_linear" x1="37.7539" y1="0" x2="37.7539" y2="14.1875" gradientUnits="userSpaceOnUse">
<stop stop-color="#3882C2"/>
<stop offset="1" stop-color="#134694"/>
</linearGradient>
<linearGradient id="paint6_linear" x1="34.2821" y1="20.8069" x2="34.2821" y2="41.8878" gradientUnits="userSpaceOnUse">
<stop stop-color="#3882C2"/>
<stop offset="1" stop-color="#134694"/>
</linearGradient>
<linearGradient id="paint7_linear" x1="32.493" y1="26.3367" x2="32.493" y2="31.3375" gradientUnits="userSpaceOnUse">
<stop stop-color="#3882C2"/>
<stop offset="1" stop-color="#134694"/>
</linearGradient>
<linearGradient id="paint8_linear" x1="36.2333" y1="33.5271" x2="36.2333" y2="39.1216" gradientUnits="userSpaceOnUse">
<stop stop-color="#3882C2"/>
<stop offset="1" stop-color="#134694"/>
</linearGradient>
<linearGradient id="paint9_linear" x1="42.0005" y1="39.936" x2="42.0005" y2="83.9999" gradientUnits="userSpaceOnUse">
<stop stop-color="#3882C2"/>
<stop offset="1" stop-color="#134694"/>
</linearGradient>
</defs>
</svg>
