<svg width="84" height="84" viewBox="0 0 84 84" fill="none" xmlns="http://www.w3.org/2000/svg">
<path d="M36.32 48.5652C37.9356 47.1906 39.4557 44.9743 39.8482 43.5527C38.2041 42.2491 34.7359 39.2875 31.6784 35.2979V52.0654C32.4628 51.4084 33.2786 50.826 34.0774 50.2574C34.8759 49.689 35.6302 49.1521 36.32 48.5652Z" fill="url(#paint0_linear)"/>
<path d="M53.8914 20.8914C53.8914 14.3344 48.5569 9 42 9C35.4431 9 30.1086 14.3345 30.1086 20.8914C30.1086 29.4261 38.7536 37.3168 41.9984 39.9772C45.241 37.3121 53.8914 29.4036 53.8914 20.8914ZM35.807 21.303C35.807 17.8882 38.5852 15.11 42 15.11C45.4148 15.11 48.193 17.8882 48.193 21.303C48.193 24.7178 45.4148 27.496 42 27.496C38.5852 27.496 35.807 24.7179 35.807 21.303Z" fill="url(#paint1_linear)"/>
<path d="M36.9841 63.1246C42.1733 63.6331 47.4614 62.3867 51.876 59.6125C52.026 59.5182 52.1737 59.4204 52.3216 59.3229V35.2979C49.1845 39.3913 45.6141 42.4033 44.0263 43.6519C43.6 47.0786 40.3529 50.5545 38.9953 51.7097C38.1698 52.4121 37.3065 53.0264 36.4717 53.6208C35.3378 54.4281 34.2669 55.1905 33.3934 56.0929C32.236 57.2886 31.3152 59.13 31.8669 60.549C32.6446 62.5489 35.9803 63.0259 36.9841 63.1246Z" fill="url(#paint2_linear)"/>
<path d="M42 23.3674C43.1401 23.3674 44.0643 22.4432 44.0643 21.3031C44.0643 20.163 43.1401 19.2388 42 19.2388C40.8599 19.2388 39.9357 20.163 39.9357 21.3031C39.9357 22.4432 40.8599 23.3674 42 23.3674Z" fill="url(#paint3_linear)"/>
<path d="M56.4503 28.3085V56.1884C56.5855 56.0776 56.7203 55.9671 56.8566 55.8552C58.384 54.6011 59.9634 53.304 61.6811 52.1666C66.3373 49.0826 71.1097 48.0808 75.1186 49.3453L75.1939 49.3708C75.2791 49.4013 76.0693 49.6945 77.0936 50.3552V16.9956L57.7153 24.1008C57.4459 25.548 57.0092 26.955 56.4503 28.3085Z" fill="url(#paint4_linear)"/>
<path d="M73.8207 53.2653C70.0621 52.1132 66.0336 54.2358 63.9606 55.6086C62.4197 56.629 60.9902 57.803 59.4768 59.0458C58.4961 59.8512 57.4947 60.6711 56.4503 61.4567V74.8832L77.0936 66.7734V56.0408C75.9006 54.1576 74.1075 53.3802 73.8207 53.2653Z" fill="url(#paint5_linear)"/>
<path d="M52.3217 64.1196C48.3092 66.2453 43.7989 67.3643 39.2613 67.3643C38.3675 67.3643 37.4732 67.321 36.5809 67.2333C34.678 67.0466 33.0289 66.5938 31.6784 65.9036V74.9999H52.3217V64.1196Z" fill="url(#paint6_linear)"/>
<path d="M9.0595 41.3788C10.9819 41.3756 12.6739 39.753 13.511 38.786C14.1906 38.001 14.7998 37.1322 15.4449 36.2125C16.1659 35.1844 16.9114 34.1214 17.7988 33.1237C20.2779 30.3364 23.6309 28.3842 27.2568 27.5643C26.8371 26.4417 26.505 25.2847 26.2847 24.1009L6.9064 16.9956V41.3789H9.0595V41.3788Z" fill="url(#paint7_linear)"/>
<path d="M27.5497 31.7446C24.9957 32.4458 22.6509 33.8807 20.8836 35.8675C20.1546 36.687 19.5087 37.6079 18.825 38.5829C18.1489 39.5471 17.4496 40.544 16.6323 41.4881C14.3923 44.0756 11.704 45.503 9.0628 45.5072H6.9064V66.7731L27.5497 74.8829V31.7446Z" fill="url(#paint8_linear)"/>
<defs>
<linearGradient id="paint0_linear" x1="35.7633" y1="35.2979" x2="35.7633" y2="52.0654" gradientUnits="userSpaceOnUse">
<stop stop-color="#3882C2"/>
<stop offset="1" stop-color="#134694"/>
</linearGradient>
<linearGradient id="paint1_linear" x1="42" y1="9" x2="42" y2="39.9772" gradientUnits="userSpaceOnUse">
<stop stop-color="#3882C2"/>
<stop offset="1" stop-color="#134694"/>
</linearGradient>
<linearGradient id="paint2_linear" x1="42.0121" y1="35.2979" x2="42.0121" y2="63.2358" gradientUnits="userSpaceOnUse">
<stop stop-color="#3882C2"/>
<stop offset="1" stop-color="#134694"/>
</linearGradient>
<linearGradient id="paint3_linear" x1="42" y1="19.2388" x2="42" y2="23.3674" gradientUnits="userSpaceOnUse">
<stop stop-color="#3882C2"/>
<stop offset="1" stop-color="#134694"/>
</linearGradient>
<linearGradient id="paint4_linear" x1="66.772" y1="16.9956" x2="66.772" y2="56.1884" gradientUnits="userSpaceOnUse">
<stop stop-color="#3882C2"/>
<stop offset="1" stop-color="#134694"/>
</linearGradient>
<linearGradient id="paint5_linear" x1="66.772" y1="52.9348" x2="66.772" y2="74.8832" gradientUnits="userSpaceOnUse">
<stop stop-color="#3882C2"/>
<stop offset="1" stop-color="#134694"/>
</linearGradient>
<linearGradient id="paint6_linear" x1="42" y1="64.1196" x2="42" y2="74.9999" gradientUnits="userSpaceOnUse">
<stop stop-color="#3882C2"/>
<stop offset="1" stop-color="#134694"/>
</linearGradient>
<linearGradient id="paint7_linear" x1="17.0816" y1="16.9956" x2="17.0816" y2="41.3789" gradientUnits="userSpaceOnUse">
<stop stop-color="#3882C2"/>
<stop offset="1" stop-color="#134694"/>
</linearGradient>
<linearGradient id="paint8_linear" x1="17.2281" y1="31.7446" x2="17.2281" y2="74.8829" gradientUnits="userSpaceOnUse">
<stop stop-color="#3882C2"/>
<stop offset="1" stop-color="#134694"/>
</linearGradient>
</defs>
</svg>
