<svg width="84" height="84" viewBox="0 0 84 84" fill="none" xmlns="http://www.w3.org/2000/svg">
<g clip-path="url(#clip0)">
<path d="M37.231 65.6164C33.9563 68.6425 29.4271 69.3203 25.4098 67.386C23.9576 66.6866 22.732 65.7209 21.7726 64.5643L16.3026 76.6629C16.0537 77.2133 16.3316 77.6282 16.4625 77.781C16.5934 77.9336 16.9611 78.2714 17.5429 78.1096L21.525 77.0012C21.9788 76.875 22.4375 76.8142 22.8898 76.8142C24.798 76.8142 26.594 77.8942 27.4588 79.6839L29.2573 83.4057C29.5199 83.9496 30.0126 84.0039 30.2177 83.9998C30.4188 83.9971 30.9136 83.9319 31.1624 83.3814L39.8631 64.1362C38.9071 64.4114 38.0018 64.904 37.231 65.6164Z" fill="url(#paint0_linear)"/>
<path d="M67.6973 76.6629L62.2273 64.5643C61.2679 65.7211 60.0423 66.6867 58.59 67.386C54.5727 69.3203 50.0435 68.6425 46.7689 65.6164C45.9981 64.904 45.0928 64.4114 44.1365 64.1362L52.8372 83.3814C53.0861 83.932 53.5809 83.9971 53.7819 83.9998C53.9869 84.0039 54.4796 83.9496 54.7423 83.4057L56.5407 79.6839C57.4054 77.8942 59.2015 76.8142 61.1097 76.8142C61.562 76.8142 62.0209 76.875 62.4746 77.0012L66.4567 78.1096C67.0384 78.2715 67.4063 77.9337 67.537 77.781C67.6683 77.6281 67.9462 77.2132 67.6973 76.6629Z" fill="url(#paint1_linear)"/>
<path d="M71.9941 34.0907C67.4512 30.9801 66.0415 24.804 68.785 20.0302C70.434 17.1606 69.5758 14.325 68.2228 12.6281C66.8696 10.9316 64.2957 9.46411 61.1315 10.4329C55.8677 12.0451 50.1595 9.29676 48.1376 4.17539C46.9222 1.09692 44.17 0 42 0C39.8299 0 37.0778 1.09692 35.8624 4.17555C33.8405 9.29709 28.1328 12.0451 22.8685 10.4331C19.7039 9.46444 17.1306 10.9316 15.7772 12.6282C14.4242 14.3251 13.566 17.1604 15.215 20.0304C17.9584 24.804 16.5488 30.9802 12.0059 34.0909C9.27493 35.961 8.81802 38.8881 9.30069 41.0038C9.78336 43.1196 11.4653 45.5583 14.7372 46.0582C20.1798 46.8897 24.1295 51.8424 23.7293 57.3338C23.4885 60.6349 25.4922 62.8172 27.4473 63.7589C29.4026 64.7005 32.358 64.9066 34.7888 62.6601C36.8104 60.7919 39.4057 59.8574 41.9998 59.8574C44.595 59.8574 47.1888 60.7914 49.2107 62.6601C51.6418 64.9067 54.5974 64.7007 56.5525 63.7589C58.5076 62.8174 60.5112 60.635 60.2705 57.3339C59.8703 51.8426 63.82 46.8899 69.2626 46.0582C72.5345 45.5583 74.2161 43.1194 74.6991 41.0038C75.182 38.8877 74.7247 35.9607 71.9941 34.0907ZM42 55.1124C30.0932 55.1124 20.4062 45.4255 20.4062 33.5186C20.4062 21.6118 30.093 11.9247 42 11.9247C53.907 11.9247 63.5937 21.6116 63.5937 33.5185C63.5936 45.4253 53.9068 55.1124 42 55.1124Z" fill="url(#paint2_linear)"/>
<path d="M41.9998 15.9509C32.3129 15.9509 24.4322 23.8318 24.4322 33.5186C24.4322 43.2053 32.3128 51.0862 41.9998 51.0862C51.6869 51.0862 59.5675 43.2053 59.5675 33.5186C59.5675 23.8318 51.6867 15.9509 41.9998 15.9509ZM51.0028 31.8153L40.0693 39.801C39.7223 40.0545 39.3059 40.1885 38.882 40.1885C38.7727 40.1885 38.663 40.1797 38.5537 40.1616C38.0207 40.0735 37.5452 39.7748 37.2345 39.3325L33.9641 34.676C33.325 33.766 33.5447 32.5104 34.4544 31.8714C35.3643 31.2324 36.6197 31.4519 37.2589 32.3618L39.3507 35.3402L48.6281 28.5641C49.526 27.9086 50.7855 28.1042 51.4411 29.0023C52.0969 29.9 51.9005 31.1594 51.0028 31.8153Z" fill="url(#paint3_linear)"/>
</g>
<defs>
<linearGradient id="paint0_linear" x1="28.0328" y1="64.1362" x2="28.0328" y2="84" gradientUnits="userSpaceOnUse">
<stop stop-color="#3882C2"/>
<stop offset="1" stop-color="#134694"/>
</linearGradient>
<linearGradient id="paint1_linear" x1="55.9669" y1="64.1362" x2="55.9669" y2="84" gradientUnits="userSpaceOnUse">
<stop stop-color="#3882C2"/>
<stop offset="1" stop-color="#134694"/>
</linearGradient>
<linearGradient id="paint2_linear" x1="41.9999" y1="0" x2="41.9999" y2="64.4292" gradientUnits="userSpaceOnUse">
<stop stop-color="#3882C2"/>
<stop offset="1" stop-color="#134694"/>
</linearGradient>
<linearGradient id="paint3_linear" x1="41.9998" y1="15.9509" x2="41.9998" y2="51.0862" gradientUnits="userSpaceOnUse">
<stop stop-color="#3882C2"/>
<stop offset="1" stop-color="#134694"/>
</linearGradient>
<clipPath id="clip0">
<rect width="84" height="84" fill="white"/>
</clipPath>
</defs>
</svg>
